<svg width="192" height="39" viewBox="0 0 192 39" fill="none" xmlns="http://www.w3.org/2000/svg">
<path d="M172.243 38.6957L178.603 26.9357L170.363 12.2157H176.043L181.403 22.0557L186.203 12.2157H191.723L177.763 38.6957H172.243Z" fill="black"/>
<path d="M163.07 14.4557V0.375732H167.95V29.5357H163.07V27.2957C161.31 29.8157 158.99 30.0957 157.75 30.0957C152.43 30.0957 148.91 25.9357 148.91 20.8557C148.91 15.7357 152.39 11.6557 157.51 11.6557C158.83 11.6557 161.43 11.8957 163.07 14.4557ZM158.75 15.9757C155.95 15.9757 153.95 18.0957 153.95 20.8557C153.95 23.6157 155.95 25.7757 158.75 25.7757C161.55 25.7757 163.55 23.6157 163.55 20.8557C163.55 18.0957 161.55 15.9757 158.75 15.9757Z" fill="black"/>
<path d="M128.345 12.2157H133.225V22.0157C133.225 22.9357 133.305 24.1757 134.265 25.0557C134.865 25.5757 135.825 25.9357 136.745 25.9357C137.665 25.9357 138.625 25.5757 139.225 25.0557C140.185 24.1757 140.265 22.9357 140.265 22.0157V12.2157H145.145V22.8157C145.145 24.3757 144.945 26.4557 143.025 28.1357C141.425 29.5357 138.865 30.0957 136.745 30.0957C134.625 30.0957 132.065 29.5357 130.465 28.1357C128.545 26.4557 128.345 24.3757 128.345 22.8157V12.2157Z" fill="black"/>
<path d="M125.004 16.3757H121.644V29.5357H116.764V16.3757H114.844V12.2157H116.764V6.29573H121.644V12.2157H125.004V16.3757Z" fill="black"/>
<path d="M110.756 5.37573L108.036 8.93573C106.476 6.85573 104.636 6.65574 103.676 6.65574C100.876 6.65574 99.9965 8.41574 99.9965 9.77574C99.9965 10.4157 100.196 11.0157 100.836 11.5757C101.476 12.1757 102.356 12.4957 104.036 13.0957C106.116 13.8157 108.076 14.5357 109.436 15.7757C110.636 16.8557 111.716 18.6557 111.716 21.3757C111.716 26.5757 107.956 30.1357 102.436 30.1357C97.5165 30.1357 94.6365 27.1357 93.2365 25.0957L96.6365 21.8557C97.9165 24.4557 100.356 25.4157 102.236 25.4157C104.596 25.4157 106.356 23.9757 106.356 21.7357C106.356 20.7757 106.036 20.0157 105.316 19.3357C104.316 18.4157 102.716 17.8957 101.196 17.3757C99.7965 16.8957 98.1165 16.2557 96.7565 15.0557C95.8765 14.2957 94.6365 12.8157 94.6365 10.0957C94.6365 6.17573 97.2765 2.25573 103.196 2.25573C104.876 2.25573 108.036 2.57573 110.756 5.37573Z" fill="black"/>
<path d="M76.4821 23.9757L80.9621 24.6957C80.4421 25.9757 78.4821 30.0957 72.4421 30.0957C69.6421 30.0957 67.5221 29.2957 65.8021 27.6557C63.8821 25.8557 63.0821 23.6157 63.0821 20.8957C63.0821 17.4557 64.4821 15.3357 65.7221 14.0957C67.7621 12.0957 70.1621 11.6557 72.2421 11.6557C75.7621 11.6557 77.8021 13.0557 79.0021 14.4957C80.8421 16.6957 81.0821 19.4157 81.0821 21.2957V21.6957H68.1221C68.1221 22.7357 68.4021 23.8557 68.9621 24.6157C69.4821 25.3357 70.5621 26.2557 72.4421 26.2557C74.2821 26.2557 75.6821 25.3757 76.4821 23.9757ZM68.2821 18.5757H76.4821C76.0821 16.2157 74.1621 15.0957 72.3621 15.0957C70.5621 15.0957 68.6821 16.2557 68.2821 18.5757Z" fill="black"/>
<path d="M59.6302 13.4957L57.2302 16.3357C56.0702 15.2557 54.9102 15.1757 54.3902 15.1757C53.2302 15.1757 52.5102 15.7357 52.5102 16.5757C52.5102 17.0157 52.7102 17.6957 54.0702 18.1357L55.2302 18.4957C56.5902 18.9357 58.6302 19.6157 59.6302 20.9757C60.1502 21.6957 60.5102 22.7357 60.5102 23.8557C60.5102 25.4157 59.9902 26.9757 58.5902 28.2557C57.1902 29.5357 55.5102 30.0957 53.3902 30.0957C49.7902 30.0957 47.7502 28.3757 46.6702 27.2157L49.2302 24.2557C50.1902 25.3757 51.6302 26.2557 53.0702 26.2557C54.4302 26.2557 55.4702 25.5757 55.4702 24.3757C55.4702 23.2957 54.5902 22.8557 53.9502 22.6157L52.8302 22.2157C51.5902 21.7757 50.1502 21.2157 49.1102 20.1357C48.3102 19.2957 47.7902 18.2157 47.7902 16.8157C47.7902 15.1357 48.5902 13.7357 49.5902 12.8957C50.9502 11.8157 52.7102 11.6557 54.1102 11.6557C55.3902 11.6557 57.4302 11.8157 59.6302 13.4957Z" fill="black"/>
<path d="M38.2577 14.4557V12.2157H43.1377V29.5357H38.2577V27.2957C36.4977 29.8157 34.1777 30.0957 32.9377 30.0957C27.6177 30.0957 24.0977 25.9357 24.0977 20.8557C24.0977 15.7357 27.5777 11.6557 32.6977 11.6557C34.0177 11.6557 36.6177 11.8957 38.2577 14.4557ZM33.9377 15.9757C31.1377 15.9757 29.1377 18.0957 29.1377 20.8557C29.1377 23.6157 31.1377 25.7757 33.9377 25.7757C36.7377 25.7757 38.7377 23.6157 38.7377 20.8557C38.7377 18.0957 36.7377 15.9757 33.9377 15.9757Z" fill="black"/>
<path d="M20.9171 22.4957V28.5757C19.3171 29.4157 17.1971 30.1357 14.3171 30.1357C9.6371 30.1357 6.7971 28.5357 4.5571 26.4157C1.4771 23.4557 0.2771 20.1357 0.2771 16.2157C0.2771 11.3757 2.2771 7.89574 4.5571 5.77573C7.2371 3.25574 10.5571 2.25573 14.3571 2.25573C16.2371 2.25573 18.4771 2.57574 20.9171 3.89573V9.97573C18.4771 7.17573 15.4371 6.97573 14.4771 6.97573C9.1171 6.97573 5.6371 11.3757 5.6371 16.2957C5.6371 22.2157 10.1971 25.4157 14.6771 25.4157C17.1571 25.4157 19.3571 24.3357 20.9171 22.4957Z" fill="black"/>
</svg>
