<svg width="230" height="46" viewBox="0 0 230 46" fill="none" xmlns="http://www.w3.org/2000/svg">
<path d="M206.251 45.984L213.883 31.872L203.995 14.208H210.811L217.243 26.016L223.003 14.208H229.627L212.875 45.984H206.251Z" fill="black"/>
<path d="M195.244 16.896V0H201.1V34.992H195.244V32.304C193.132 35.328 190.348 35.664 188.86 35.664C182.476 35.664 178.252 30.672 178.252 24.576C178.252 18.432 182.428 13.536 188.572 13.536C190.156 13.536 193.276 13.824 195.244 16.896ZM190.06 18.72C186.7 18.72 184.3 21.264 184.3 24.576C184.3 27.888 186.7 30.48 190.06 30.48C193.42 30.48 195.82 27.888 195.82 24.576C195.82 21.264 193.42 18.72 190.06 18.72Z" fill="black"/>
<path d="M153.574 14.208H159.43V25.968C159.43 27.072 159.526 28.56 160.678 29.616C161.398 30.24 162.55 30.672 163.654 30.672C164.758 30.672 165.91 30.24 166.63 29.616C167.782 28.56 167.878 27.072 167.878 25.968V14.208H173.734V26.928C173.734 28.8 173.494 31.296 171.19 33.312C169.27 34.992 166.198 35.664 163.654 35.664C161.11 35.664 158.038 34.992 156.118 33.312C153.814 31.296 153.574 28.8 153.574 26.928V14.208Z" fill="black"/>
<path d="M149.564 19.2H145.533V34.992H139.676V19.2H137.372V14.208H139.676V7.104H145.533V14.208H149.564V19.2Z" fill="black"/>
<path d="M132.948 6.00001L129.684 10.272C127.812 7.77601 125.604 7.53601 124.452 7.53601C121.092 7.53601 120.036 9.64801 120.036 11.28C120.036 12.048 120.276 12.768 121.044 13.44C121.812 14.16 122.868 14.544 124.884 15.264C127.38 16.128 129.732 16.992 131.364 18.48C132.804 19.776 134.1 21.936 134.1 25.2C134.1 31.44 129.588 35.712 122.964 35.712C117.06 35.712 113.604 32.112 111.924 29.664L116.004 25.776C117.54 28.896 120.468 30.048 122.724 30.048C125.556 30.048 127.668 28.32 127.668 25.632C127.668 24.48 127.284 23.568 126.42 22.752C125.22 21.648 123.3 21.024 121.476 20.4C119.796 19.824 117.78 19.056 116.148 17.616C115.092 16.704 113.604 14.928 113.604 11.664C113.604 6.96 116.772 2.256 123.876 2.256C125.892 2.256 129.684 2.64001 132.948 6.00001Z" fill="black"/>
<path d="M91.8186 28.32L97.1946 29.184C96.5706 30.72 94.2187 35.664 86.9706 35.664C83.6106 35.664 81.0667 34.704 79.0026 32.736C76.6986 30.576 75.7386 27.888 75.7386 24.624C75.7386 20.496 77.4187 17.952 78.9067 16.464C81.3547 14.064 84.2346 13.536 86.7307 13.536C90.9547 13.536 93.4026 15.216 94.8427 16.944C97.0507 19.584 97.3387 22.848 97.3387 25.104V25.584H81.7867C81.7867 26.832 82.1227 28.176 82.7947 29.088C83.4187 29.952 84.7147 31.056 86.9706 31.056C89.1786 31.056 90.8587 30 91.8186 28.32ZM81.9787 21.84H91.8186C91.3387 19.008 89.0347 17.664 86.8746 17.664C84.7146 17.664 82.4587 19.056 81.9787 21.84Z" fill="black"/>
<path d="M71.5964 15.744L68.7164 19.152C67.3244 17.856 65.9324 17.76 65.3084 17.76C63.9164 17.76 63.0524 18.432 63.0524 19.44C63.0524 19.968 63.2924 20.784 64.9244 21.312L66.3164 21.744C67.9484 22.272 70.3964 23.088 71.5964 24.72C72.2204 25.584 72.6524 26.832 72.6524 28.176C72.6524 30.048 72.0284 31.92 70.3484 33.456C68.6684 34.992 66.6524 35.664 64.1084 35.664C59.7884 35.664 57.3404 33.6 56.0444 32.208L59.1164 28.656C60.2684 30 61.9964 31.056 63.7244 31.056C65.3564 31.056 66.6044 30.24 66.6044 28.8C66.6044 27.504 65.5484 26.976 64.7804 26.688L63.4364 26.208C61.9484 25.68 60.2204 25.008 58.9724 23.712C58.0124 22.704 57.3884 21.408 57.3884 19.728C57.3884 17.712 58.3484 16.032 59.5484 15.024C61.1804 13.728 63.2924 13.536 64.9724 13.536C66.5084 13.536 68.9564 13.728 71.5964 15.744Z" fill="black"/>
<path d="M45.9494 16.896V14.208H51.8054V34.992H45.9494V32.304C43.8374 35.328 41.0534 35.664 39.5654 35.664C33.1814 35.664 28.9574 30.672 28.9574 24.576C28.9574 18.432 33.1334 13.536 39.2774 13.536C40.8614 13.536 43.9814 13.824 45.9494 16.896ZM40.7654 18.72C37.4054 18.72 35.0054 21.264 35.0054 24.576C35.0054 27.888 37.4054 30.48 40.7654 30.48C44.1254 30.48 46.5254 27.888 46.5254 24.576C46.5254 21.264 44.1254 18.72 40.7654 18.72Z" fill="black"/>
<path d="M25.1407 26.544V33.84C23.2207 34.848 20.6767 35.712 17.2207 35.712C11.6047 35.712 8.19665 33.792 5.50865 31.248C1.81265 27.696 0.37265 23.712 0.37265 19.008C0.37265 13.2 2.77265 9.02401 5.50865 6.48001C8.72465 3.45601 12.7087 2.256 17.2687 2.256C19.5247 2.256 22.2127 2.64001 25.1407 4.224V11.52C22.2127 8.16001 18.5647 7.92001 17.4127 7.92001C10.9807 7.92001 6.80465 13.2 6.80465 19.104C6.80465 26.208 12.2767 30.048 17.6527 30.048C20.6287 30.048 23.2687 28.752 25.1407 26.544Z" fill="black"/>
</svg>
