<svg width="160" height="34" viewBox="0 0 160 34" fill="none" xmlns="http://www.w3.org/2000/svg">
<g id="Contact">
<path d="M159.527 17.3512H155.495V33.1432H149.639V17.3512H147.335V12.3592H149.639V5.25523H155.495V12.3592H159.527V17.3512Z" fill="black"/>
<path d="M142.836 12.9352V18.6952C141.588 17.5432 140.052 16.8712 138.036 16.8712C134.148 16.8712 132.18 19.7032 132.18 22.7272C132.18 26.1352 134.724 28.6312 138.228 28.6312C139.524 28.6312 141.252 28.2472 142.836 26.8072V32.5192C141.684 33.0952 139.86 33.8152 137.46 33.8152C134.196 33.8152 131.316 32.5672 129.444 30.7912C127.86 29.3032 126.132 26.7112 126.132 22.8232C126.132 19.1752 127.62 16.2472 129.732 14.3752C132.276 12.1192 135.204 11.6872 137.22 11.6872C139.38 11.6872 141.156 12.1192 142.836 12.9352Z" fill="black"/>
<path d="M115.749 15.0472V12.3592H121.605V33.1432H115.749V30.4552C113.637 33.4792 110.853 33.8152 109.365 33.8152C102.981 33.8152 98.7569 28.8232 98.7569 22.7272C98.7569 16.5832 102.933 11.6872 109.077 11.6872C110.661 11.6872 113.781 11.9752 115.749 15.0472ZM110.565 16.8712C107.205 16.8712 104.805 19.4152 104.805 22.7272C104.805 26.0392 107.205 28.6312 110.565 28.6312C113.925 28.6312 116.325 26.0392 116.325 22.7272C116.325 19.4152 113.925 16.8712 110.565 16.8712Z" fill="black"/>
<path d="M95.8034 17.3512H91.7714V33.1432H85.9154V17.3512H83.6114V12.3592H85.9154V5.25523H91.7714V12.3592H95.8034V17.3512Z" fill="black"/>
<path d="M58.3548 33.1432V12.3592H64.2108V15.0472C65.3148 13.5112 67.2828 11.6872 70.6428 11.6872C72.4668 11.6872 75.1548 12.2152 76.7868 14.2312C78.2268 16.0072 78.4188 18.0712 78.4188 20.0872V33.1432H72.5628V21.8152C72.5628 20.6632 72.5148 18.8392 71.4588 17.7352C70.5468 16.7752 69.2988 16.6792 68.7228 16.6792C67.1868 16.6792 65.9868 17.2072 65.1228 18.5032C64.2588 19.8472 64.2108 21.3352 64.2108 22.5352V33.1432H58.3548Z" fill="black"/>
<path d="M41.9216 11.6872C45.8576 11.6872 48.5456 12.9832 50.3216 14.6152C52.3856 16.4872 53.8256 19.3672 53.8256 22.7752C53.8256 26.1352 52.3856 29.0152 50.3216 30.8872C48.5456 32.5192 45.8576 33.8152 41.9216 33.8152C37.9856 33.8152 35.2976 32.5192 33.5216 30.8872C31.4576 29.0152 30.0176 26.1352 30.0176 22.7752C30.0176 19.3672 31.4576 16.4872 33.5216 14.6152C35.2976 12.9832 37.9856 11.6872 41.9216 11.6872ZM41.9216 28.6312C45.3296 28.6312 47.7776 25.9432 47.7776 22.7752C47.7776 19.5112 45.2816 16.8712 41.9216 16.8712C38.5616 16.8712 36.0656 19.5112 36.0656 22.7752C36.0656 25.9432 38.5136 28.6312 41.9216 28.6312Z" fill="black"/>
<path d="M25.2408 24.6952V31.9912C23.3208 32.9992 20.7768 33.8632 17.3208 33.8632C11.7048 33.8632 8.29681 31.9432 5.60881 29.3992C1.91281 25.8472 0.472809 21.8632 0.472809 17.1592C0.472809 11.3512 2.87281 7.17523 5.60881 4.63123C8.82481 1.60723 12.8088 0.407227 17.3688 0.407227C19.6248 0.407227 22.3128 0.791227 25.2408 2.37523V9.67123C22.3128 6.31123 18.6648 6.07123 17.5128 6.07123C11.0808 6.07123 6.90481 11.3512 6.90481 17.2552C6.90481 24.3592 12.3768 28.1992 17.7528 28.1992C20.7288 28.1992 23.3688 26.9032 25.2408 24.6952Z" fill="black"/>
</g>
</svg>
