<svg width="98" height="37" viewBox="0 0 98 37" fill="none" xmlns="http://www.w3.org/2000/svg">
<path d="M78.9274 23.5108L73.4554 35.7508H70.5754L60.0154 14.9668H66.5434L72.0154 26.9668L77.5834 14.9668H80.2714L85.8394 26.9668L91.3114 14.9668H97.8394L87.2794 35.7508H84.3994L78.9274 23.5108Z" fill="black"/>
<path d="M46.8214 14.2948C50.7574 14.2948 53.4454 15.5908 55.2214 17.2228C57.2854 19.0948 58.7254 21.9748 58.7254 25.3828C58.7254 28.7428 57.2854 31.6228 55.2214 33.4948C53.4454 35.1268 50.7574 36.4228 46.8214 36.4228C42.8854 36.4228 40.1974 35.1268 38.4214 33.4948C36.3574 31.6228 34.9174 28.7428 34.9174 25.3828C34.9174 21.9748 36.3574 19.0948 38.4214 17.2228C40.1974 15.5908 42.8854 14.2948 46.8214 14.2948ZM46.8214 31.2388C50.2294 31.2388 52.6774 28.5508 52.6774 25.3828C52.6774 22.1188 50.1814 19.4788 46.8214 19.4788C43.4614 19.4788 40.9654 22.1188 40.9654 25.3828C40.9654 28.5508 43.4134 31.2388 46.8214 31.2388Z" fill="black"/>
<path d="M23.0959 0.758789H28.9519V35.7508H23.0959V0.758789Z" fill="black"/>
<path d="M17.1526 3.73479V9.11079H6.40055V16.2628H16.4806V21.6388H6.40055V35.7508H0.160553V3.73479H17.1526Z" fill="black"/>
</svg>
