<svg width="84" height="62" viewBox="0 0 84 62" fill="none" xmlns="http://www.w3.org/2000/svg">
<g clip-path="url(#clip0_2217_1597)">
<path d="M59.413 39.6567H62.5435V61.2555H59.413V59.8155C58.1739 61.0591 56.8043 61.6482 55.2391 61.6482C53.3478 61.6482 51.8478 60.9937 50.6087 59.6192C49.3696 58.2447 48.7826 56.4776 48.7826 54.3831C48.7826 52.2887 49.3696 50.6524 50.6087 49.278C51.8478 47.9035 53.3478 47.249 55.1739 47.249C56.7391 47.249 58.1739 47.9035 59.413 49.2125V39.6567ZM51.9782 54.3831C51.9782 55.6921 52.3043 56.7394 53.0217 57.5902C53.7391 58.4411 54.6522 58.8338 55.7609 58.8338C56.9348 58.8338 57.8478 58.4411 58.5652 57.6557C59.2826 56.8048 59.6087 55.7576 59.6087 54.514C59.6087 53.2705 59.2826 52.1578 58.5652 51.3724C57.8478 50.587 56.9348 50.1288 55.7609 50.1288C54.6522 50.1288 53.8043 50.5215 53.0217 51.3724C52.3043 52.2233 51.9782 53.205 51.9782 54.4486V54.3831Z" fill="black"/>
<path d="M73.7609 49.9325L67.8261 39.5913H71.5435L75.6522 46.9218L79.9565 39.5913H83.6739L77.4783 49.9325L84 61.2555H80.3478L75.587 53.0087L70.6957 61.2555H66.9783L73.7609 49.9325Z" fill="black"/>
<path d="M3.26087 39.6567V58.2447H13.5V61.3209H0V39.7222H3.26087V39.6567Z" fill="black"/>
<path d="M29.0869 55.1686H19.3695C19.4348 56.2812 19.8261 57.1975 20.4782 57.852C21.1304 58.5065 21.913 58.8338 22.9565 58.8338C23.7391 58.8338 24.3913 58.6374 24.913 58.2447C25.4348 57.852 25.9565 57.1975 26.6087 56.1503L29.2826 57.6557C28.8913 58.3756 28.4348 58.9647 27.9782 59.4883C27.5217 60.0119 27.0652 60.4046 26.5435 60.7319C26.0217 61.0591 25.4348 61.3209 24.8478 61.4518C24.2608 61.5827 23.6087 61.6482 22.8913 61.6482C20.8695 61.6482 19.2391 60.9937 18 59.6847C16.7608 58.3756 16.1739 56.6085 16.1739 54.4486C16.1739 52.2887 16.7608 50.5216 17.9348 49.2125C19.1087 47.9035 20.7391 47.249 22.6956 47.249C24.6522 47.249 26.2826 47.9035 27.4565 49.1471C28.6304 50.3907 29.2174 52.1578 29.2174 54.4486V55.1686H29.0869ZM25.8261 52.616C25.3695 50.9143 24.3261 50.0634 22.6304 50.0634C22.2391 50.0634 21.913 50.0634 21.5869 50.2598C21.2608 50.3907 20.9348 50.5216 20.6739 50.7834C20.413 50.9797 20.1521 51.2415 19.9565 51.5688C19.7608 51.896 19.6304 52.2233 19.5 52.616H25.8261Z" fill="black"/>
<path d="M42.6522 47.6417H45.7826V61.2555H42.6522V59.8155C41.3478 61.0591 39.9783 61.6482 38.4783 61.6482C36.5869 61.6482 35.0217 60.9937 33.8478 59.6192C32.6087 58.2447 32.0217 56.4776 32.0217 54.3831C32.0217 52.2887 32.6087 50.6525 33.8478 49.278C35.0869 47.9035 36.5869 47.249 38.413 47.249C39.9783 47.249 41.413 47.9035 42.6522 49.2125V47.6417ZM35.2174 54.3831C35.2174 55.6922 35.5435 56.7394 36.2609 57.5902C36.9783 58.4411 37.8913 58.8338 39 58.8338C40.1739 58.8338 41.0869 58.4411 41.8043 57.6557C42.5217 56.8048 42.8478 55.7576 42.8478 54.514C42.8478 53.2705 42.5217 52.1578 41.8043 51.3724C41.0869 50.587 40.1739 50.1289 39 50.1289C37.8913 50.1289 37.0435 50.5216 36.2609 51.3724C35.5435 52.2233 35.2174 53.205 35.2174 54.4486V54.3831Z" fill="black"/>
<path d="M73.5652 0.647949H64.2391L57.9783 9.81104L51.8478 0.647949H42.1304L53.1522 16.8797L42.1304 33.046H51.8478L57.9783 23.8829L64.2391 33.046H73.5652L62.6739 16.8797L73.5652 0.647949Z" fill="#0050FF"/>
<path d="M34.3044 0.647949H24.587L32.8696 12.8218H6.97827V20.8722H32.8696L24.587 33.046H34.3044L45.1304 16.8797L34.3044 0.647949Z" fill="#FF6E4B"/>
</g>
<defs>
<clipPath id="clip0_2217_1597">
<rect width="84" height="61" fill="white" transform="translate(0 0.647949)"/>
</clipPath>
</defs>
</svg>
