<svg width="58" height="19" viewBox="0 0 58 19" fill="none" xmlns="http://www.w3.org/2000/svg">
<g id="LeadX">
<path d="M45.0863 18.1439L50.1263 9.79195L45.7103 2.13595H48.4463L51.5663 7.55995L54.7583 2.13595H57.4943L52.8863 9.79195L57.7103 18.1439H54.9743L51.4703 12.0239L47.8223 18.1439H45.0863Z" fill="black"/>
<path d="M40.9997 9.21595V0.647949H43.3517V18.1439H40.9997V17.0879C39.9677 18.288 38.6957 18.4559 37.9757 18.4559C34.8557 18.4559 33.0797 15.8639 33.0797 13.0799C33.0797 9.79195 35.3357 7.77595 37.9997 7.77595C38.7437 7.77595 40.0397 7.96795 40.9997 9.21595ZM38.2877 9.88795C36.5837 9.88795 35.4797 11.3279 35.4797 13.1279C35.4797 14.8799 36.5837 16.344 38.2877 16.344C39.7757 16.344 41.1437 15.2639 41.1437 13.1519C41.1437 10.9439 39.7757 9.88795 38.2877 9.88795Z" fill="black"/>
<path d="M28.2732 9.21595V8.03995H30.6252V18.1439H28.2732V17.0879C27.2412 18.288 25.9692 18.4559 25.2492 18.4559C22.1292 18.4559 20.3532 15.8639 20.3532 13.0799C20.3532 9.79195 22.6092 7.77595 25.2732 7.77595C26.0172 7.77595 27.3132 7.96795 28.2732 9.21595ZM25.5612 9.88795C23.8572 9.88795 22.7532 11.3279 22.7532 13.1279C22.7532 14.8799 23.8572 16.344 25.5612 16.344C27.0492 16.344 28.4172 15.2639 28.4172 13.1519C28.4172 10.9439 27.0492 9.88795 25.5612 9.88795Z" fill="black"/>
<path d="M16.383 14.7359L18.3511 15.8399C17.9191 16.6079 17.295 17.2799 16.647 17.688C15.831 18.216 14.7511 18.4559 13.6711 18.4559C12.3271 18.4559 11.2231 18.1199 10.2631 17.16C9.30305 16.2 8.77505 14.808 8.77505 13.2959C8.77505 11.7359 9.32705 10.2239 10.383 9.14395C11.223 8.30395 12.3271 7.77595 13.7671 7.77595C15.3751 7.77595 16.407 8.47195 17.007 9.09595C18.303 10.4399 18.423 12.3119 18.423 13.3679V13.6559H11.175C11.223 14.3759 11.535 15.1919 12.039 15.6959C12.591 16.2479 13.2631 16.344 13.8391 16.344C14.4871 16.344 14.9671 16.1999 15.4471 15.8399C15.8551 15.5279 16.167 15.1199 16.383 14.7359ZM11.343 11.7359H16.023C15.927 11.1839 15.663 10.7039 15.303 10.3679C14.991 10.0799 14.487 9.79195 13.719 9.79195C12.903 9.79195 12.375 10.1279 12.063 10.4399C11.727 10.7519 11.463 11.2319 11.343 11.7359Z" fill="black"/>
<path d="M0.289734 2.13595H2.73773V15.8399H7.44173V18.1439H0.289734V2.13595Z" fill="black"/>
</g>
</svg>
