<svg width="145" height="30" viewBox="0 0 145 30" fill="none" xmlns="http://www.w3.org/2000/svg">
<g id="OnePageX">
<path id="Vector" d="M0.442627 11.3425C0.442627 8.21918 1.59394 5.58905 3.81432 3.36987C6.0347 1.15069 8.74851 0 11.9557 0C15.1629 0 17.7945 1.15069 20.0149 3.36987C22.2353 5.58905 23.3866 8.30137 23.3866 11.4247C23.3866 14.5479 22.2353 17.2603 20.0149 19.4795C17.7123 21.6986 14.9985 22.7671 11.7913 22.7671C8.91298 22.7671 6.36365 21.7808 4.14327 19.8082C1.67617 17.6712 0.442627 14.7945 0.442627 11.2603L0.442627 11.3425ZM3.81432 11.4247C3.81432 13.8904 4.63668 15.863 6.28141 17.4247C7.92614 18.9863 9.81758 19.8082 11.8735 19.8082C14.1761 19.8082 16.1498 18.9863 17.7123 17.4247C19.2748 15.7808 20.0971 13.8082 20.0971 11.5069C20.0971 9.20548 19.2748 7.23288 17.7123 5.58904C16.1498 4.0274 14.2583 3.20548 11.9557 3.20548C9.65311 3.20548 7.76167 4.0274 6.19918 5.58904C4.63668 7.15069 3.81432 9.12329 3.81432 11.4247Z" fill="black"/>
<path id="Vector_2" d="M26.9227 8.54801H30.1299V9.86308C31.2812 8.7124 32.5148 8.21924 33.9128 8.21924C35.5575 8.21924 36.7911 8.71239 37.6957 9.78089C38.4358 10.685 38.847 12.0823 38.847 13.9727V22.4384H35.6398V14.7124C35.6398 13.3151 35.4753 12.411 35.0641 11.9179C34.6529 11.4247 33.995 11.096 33.0082 11.096C31.9391 11.096 31.199 11.4247 30.7056 12.1644C30.2944 12.822 30.0477 14.0549 30.0477 15.7809V22.4384H26.8405V8.54801H26.9227Z" fill="black"/>
<path id="Vector_3" d="M44.9329 16.8498C44.9329 17.8361 45.2618 18.658 45.9197 19.3155C46.5776 19.973 47.4822 20.3018 48.5513 20.3018C50.0315 20.3018 51.1829 19.7265 51.923 18.658L54.3078 19.973C53.4855 21.0415 52.6631 21.8634 51.7585 22.2744C50.8539 22.6854 49.7848 22.9319 48.4691 22.9319C46.4131 22.9319 44.7684 22.3566 43.5349 21.1237C42.3013 19.8909 41.6434 18.247 41.6434 16.1922C41.6434 14.1374 42.3013 12.247 43.6993 10.8498C45.0151 9.4525 46.7421 8.71277 48.798 8.71277C50.8539 8.71277 52.3342 9.3703 53.4855 10.6854C54.6368 12.0004 55.2124 13.7265 55.2124 15.9456C55.2124 16.1922 55.2124 16.521 55.2124 17.0963H44.8507L44.9329 16.8498ZM52.1697 14.3018C51.8407 12.247 50.6894 11.1785 48.7158 11.1785C46.8243 11.1785 45.673 12.247 45.0974 14.3018H52.1697Z" fill="black"/>
<path id="Vector_4" d="M62.9422 13.4793V22.4382H59.6527V0.493042H63.4356C65.2448 0.493042 70.4257 0.657427 71.4125 0.904002C72.3994 1.15058 73.2217 1.64372 73.8796 2.38345C75.1132 3.61633 75.7711 5.17798 75.7711 7.06839C75.7711 9.04099 75.1132 10.6848 73.7151 11.8355C72.3994 12.9862 70.5079 13.5615 68.2875 13.5615H62.9422V13.4793ZM62.9422 10.4382H67.9586C71.0013 10.4382 72.5638 9.28756 72.5638 6.904C72.5638 4.52044 71.0013 3.53414 67.8764 3.53414H63.0244V10.4382H62.9422Z" fill="black"/>
<path id="Vector_5" d="M86.4616 8.54735H89.6688V22.4378H86.4616V20.9583C85.1458 22.1912 83.7478 22.8487 82.1853 22.8487C80.2939 22.8487 78.6492 22.1912 77.4156 20.7939C76.1821 19.3967 75.5242 17.5885 75.5242 15.5337C75.5242 13.4789 76.1821 11.7528 77.4156 10.3556C78.6492 8.95832 80.2116 8.30078 82.1031 8.30078C83.7478 8.30078 85.1458 8.95831 86.4616 10.2734V8.62955V8.54735ZM78.8136 15.4515C78.8136 16.7665 79.1426 17.835 79.8827 18.6569C80.6228 19.4789 81.5274 19.8898 82.6787 19.8898C83.83 19.8898 84.8169 19.4789 85.557 18.6569C86.2971 17.835 86.6261 16.7665 86.6261 15.4515C86.6261 14.1364 86.2971 13.0679 85.557 12.246C84.8169 11.4241 83.9123 11.0131 82.6787 11.0131C81.6097 11.0131 80.6228 11.4241 79.8827 12.246C79.1426 13.0679 78.8136 14.1364 78.8136 15.3693V15.4515Z" fill="black"/>
<path id="Vector_6" d="M106.609 22.1097C106.609 22.7672 106.609 23.3425 106.609 23.8357C106.609 24.3288 106.527 24.7398 106.445 25.1507C106.198 26.2192 105.787 27.1233 105.129 27.8631C103.896 29.3425 102.169 30.0001 99.9483 30.0001C98.0568 30.0001 96.5766 29.5069 95.343 28.5206C94.1095 27.5343 93.3694 26.0549 93.2049 24.2466H96.4121C96.5766 24.9042 96.7411 25.4795 96.9878 25.8083C97.6457 26.6302 98.6325 27.1233 99.866 27.1233C102.251 27.1233 103.402 25.7261 103.402 22.8494V20.8768C102.169 22.1918 100.688 22.8494 98.9614 22.8494C97.07 22.8494 95.5075 22.1918 94.3562 20.7946C93.1227 19.3973 92.547 17.6713 92.547 15.6165C92.547 13.5617 93.1227 11.9179 94.274 10.4384C95.5075 8.95897 97.07 8.21924 99.1259 8.21924C100.853 8.21924 102.333 8.87678 103.484 10.1918V8.6302H106.692V22.1918L106.609 22.1097ZM103.567 15.5343C103.567 14.2192 103.238 13.0686 102.498 12.3288C101.757 11.5069 100.853 11.096 99.7016 11.096C98.468 11.096 97.5634 11.5069 96.8233 12.411C96.1654 13.2329 95.8365 14.3014 95.8365 15.5343C95.8365 16.7672 96.1654 17.8357 96.8233 18.6576C97.4812 19.5617 98.468 19.9727 99.7016 19.9727C100.935 19.9727 101.922 19.5617 102.58 18.6576C103.238 17.8357 103.567 16.8494 103.567 15.5343Z" fill="black"/>
<path id="Vector_7" d="M123.058 16.273H113.107C113.189 17.4237 113.6 18.3278 114.258 18.9853C114.916 19.6428 115.739 19.9716 116.808 19.9716C117.63 19.9716 118.288 19.8072 118.781 19.3963C119.275 18.9853 119.85 18.3278 120.508 17.2593L123.222 18.7387C122.811 19.4785 122.4 20.0538 121.906 20.5469C121.413 21.0401 120.919 21.4511 120.426 21.7798C119.933 22.1086 119.357 22.3552 118.699 22.5195C118.041 22.6839 117.383 22.7661 116.725 22.7661C114.669 22.7661 113.025 22.1086 111.709 20.7935C110.475 19.4785 109.818 17.6702 109.818 15.451C109.818 13.2319 110.393 11.5058 111.627 10.1086C112.86 8.79352 114.505 8.13599 116.479 8.13599C118.452 8.13599 120.097 8.79352 121.331 10.1086C122.482 11.4237 123.058 13.1497 123.058 15.451V16.1908V16.273ZM119.768 13.6428C119.357 11.9168 118.206 11.0949 116.561 11.0949C116.15 11.0949 115.821 11.0949 115.492 11.2593C115.163 11.3415 114.834 11.588 114.587 11.7524C114.341 11.999 114.094 12.2456 113.847 12.5743C113.683 12.9031 113.518 13.2319 113.354 13.6428H119.768Z" fill="black"/>
<path id="Vector_8" d="M133.665 10.9318L127.58 0.411255H131.363L135.557 7.8907L139.998 0.411255H143.78L137.448 10.9318L144.109 22.4386H140.409L135.557 14.0551L130.54 22.4386H126.757L133.665 10.9318Z" fill="black"/>
</g>
</svg>
