<svg width="200" height="97" viewBox="0 0 200 97" fill="none" xmlns="http://www.w3.org/2000/svg">
<g id="onepagex_logo2 1" clip-path="url(#clip0_2260_1874)">
<g id="&#227;&#131;&#172;&#227;&#130;&#164;&#227;&#131;&#164;&#227;&#131;&#188; 1">
<g id="Group">
<g id="Group_2">
<path id="Vector" d="M0 70.9247C0 66.5863 1.57407 62.9863 4.72222 59.8478C7.87037 56.8017 11.6667 55.2324 16.0185 55.2324C20.3704 55.2324 24.0741 56.8017 27.2222 59.9401C30.3704 63.0786 31.9444 66.7709 31.9444 71.1093C31.9444 75.4478 30.3704 79.2324 27.2222 82.2786C24.0741 85.3247 20.2778 86.894 15.8333 86.894C11.8519 86.894 8.33333 85.5093 5.18518 82.8324C1.75926 79.7863 0 75.9093 0 71.017L0 70.9247ZM4.62963 71.017C4.62963 74.4324 5.74074 77.2017 8.05556 79.3247C10.2778 81.5401 12.963 82.5555 15.9259 82.5555C19.1667 82.5555 21.8519 81.4478 24.0741 79.2324C26.2963 77.017 27.4074 74.2478 27.4074 71.017C27.4074 67.7863 26.2963 65.017 24.1667 62.8017C22.037 60.5863 19.3519 59.4786 16.1111 59.4786C12.8704 59.4786 10.2778 60.5863 8.05556 62.8017C5.83333 65.017 4.72222 67.694 4.72222 70.9247L4.62963 71.017Z" fill="black"/>
<path id="Vector_2" d="M36.8519 67.1398H41.2963V68.8936C42.8704 67.3244 44.6296 66.5859 46.5741 66.5859C48.7963 66.5859 50.5556 67.3244 51.8519 68.709C52.963 69.909 53.5185 71.8475 53.5185 74.6167V86.4321H49.0741V75.7244C49.0741 73.7859 48.7963 72.4936 48.2408 71.7552C47.6852 71.0167 46.7593 70.6475 45.463 70.6475C43.9815 70.6475 42.963 71.109 42.3148 72.1244C41.6667 73.0475 41.3889 74.8013 41.3889 77.2013V86.5244H36.9445V67.3244L36.8519 67.1398Z" fill="black"/>
<path id="Vector_3" d="M61.9444 78.5863C61.9444 79.9709 62.4074 81.0786 63.3333 82.0017C64.2593 82.9248 65.5556 83.294 67.037 83.294C69.0741 83.294 70.6482 82.5555 71.7593 80.9863L75 82.7402C73.8889 84.3094 72.6852 85.3248 71.4815 85.9709C70.2778 86.6171 68.7037 86.894 66.9444 86.894C64.0741 86.894 61.7593 86.0632 60 84.3094C58.2407 82.6479 57.4074 80.3402 57.4074 77.4786C57.4074 74.6171 58.3333 72.0325 60.2778 70.0017C62.1296 67.9709 64.537 67.0479 67.4074 67.0479C70.2778 67.0479 72.4074 67.9709 73.9815 69.7248C75.6481 71.5709 76.3889 73.9709 76.3889 77.0171C76.3889 77.294 76.3889 77.8479 76.3889 78.5863H61.9444ZM72.037 75.0786C71.5741 72.2171 70 70.7402 67.2222 70.7402C64.6296 70.7402 62.963 72.2171 62.2222 75.0786H72.037Z" fill="black"/>
<path id="Vector_4" d="M86.9444 73.9712V86.3404H82.3148V55.8789H87.5926C90.1852 55.8789 97.3148 56.0635 98.6111 56.4328C99.9074 56.802 101.111 57.4481 102.13 58.4635C103.889 60.2174 104.722 62.3404 104.722 64.9251C104.722 67.6943 103.796 69.9097 101.944 71.5712C100.093 73.2327 97.5 74.0635 94.3518 74.0635H86.9444V73.9712ZM86.9444 69.7251H93.8889C98.1482 69.7251 100.278 68.0635 100.278 64.8328C100.278 61.602 98.0556 60.1251 93.7037 60.1251H86.9444V69.7251Z" fill="black"/>
<path id="Vector_5" d="M119.722 67.1398H124.167V86.3398H119.722V84.309C117.87 86.0629 115.926 86.8936 113.796 86.8936C111.111 86.8936 108.889 85.9706 107.222 84.0321C105.463 82.0936 104.63 79.6013 104.63 76.6475C104.63 73.6936 105.463 71.3859 107.222 69.4475C108.981 67.509 111.111 66.5859 113.704 66.5859C115.926 66.5859 117.963 67.509 119.722 69.3552V67.1398ZM109.074 76.6475C109.074 78.4936 109.537 79.9706 110.556 81.1706C111.574 82.3706 112.87 82.9244 114.444 82.9244C116.111 82.9244 117.407 82.3706 118.426 81.2629C119.444 80.0629 119.907 78.5859 119.907 76.8321C119.907 75.0782 119.444 73.509 118.426 72.4013C117.407 71.2936 116.111 70.6475 114.444 70.6475C112.87 70.6475 111.667 71.2013 110.556 72.4013C109.537 73.6013 109.074 74.9859 109.074 76.7398V76.6475Z" fill="black"/>
<path id="Vector_6" d="M147.778 85.8782C147.778 86.8013 147.778 87.6321 147.778 88.2783C147.778 88.9244 147.593 89.5706 147.5 90.1244C147.222 91.6013 146.574 92.8013 145.648 93.8167C143.889 95.8475 141.481 96.8629 138.426 96.8629C135.833 96.8629 133.704 96.2167 132.037 94.8321C130.278 93.4475 129.352 91.4167 129.074 88.9244H133.518C133.704 89.8475 133.981 90.5859 134.352 91.1398C135.278 92.3398 136.667 92.8936 138.426 92.8936C141.667 92.8936 143.333 90.8629 143.333 86.8936V84.2167C141.574 86.0629 139.537 86.8936 137.222 86.8936C134.63 86.8936 132.407 85.9706 130.741 84.0321C129.074 82.0936 128.241 79.6936 128.241 76.8321C128.241 73.9706 128.981 71.6629 130.556 69.7244C132.222 67.6013 134.444 66.5859 137.222 66.5859C139.63 66.5859 141.667 67.509 143.241 69.2629V67.0475H147.685V85.8782H147.778ZM143.518 76.7398C143.518 74.8936 143.056 73.4167 142.037 72.2167C141.018 71.109 139.722 70.4629 138.148 70.4629C136.481 70.4629 135.093 71.109 134.167 72.309C133.241 73.4167 132.87 74.8936 132.87 76.6475C132.87 78.4013 133.333 79.8783 134.167 80.9859C135.093 82.1859 136.481 82.8321 138.148 82.8321C139.815 82.8321 141.204 82.1859 142.222 80.9859C143.148 79.8783 143.611 78.4013 143.611 76.6475L143.518 76.7398Z" fill="black"/>
<path id="Vector_7" d="M170.648 77.7552H156.852C156.944 79.3244 157.5 80.6167 158.426 81.5398C159.352 82.4629 160.463 82.9244 161.944 82.9244C163.056 82.9244 163.981 82.6475 164.722 82.0936C165.463 81.5398 166.204 80.6167 167.13 79.1398L170.926 81.2629C170.37 82.2782 169.722 83.109 169.074 83.8475C168.426 84.5859 167.778 85.1398 167.037 85.6013C166.296 86.0629 165.463 86.4321 164.63 86.6167C163.796 86.8013 162.87 86.8936 161.852 86.8936C158.981 86.8936 156.667 85.9706 154.907 84.1244C153.148 82.2783 152.315 79.7859 152.315 76.7398C152.315 73.6936 153.148 71.2013 154.815 69.3552C156.481 67.509 158.796 66.5859 161.574 66.5859C164.352 66.5859 166.667 67.509 168.333 69.2629C170 71.0167 170.833 73.509 170.833 76.7398V77.7552H170.648ZM166.019 74.1552C165.37 71.7552 163.889 70.5552 161.481 70.5552C160.926 70.5552 160.463 70.5552 160 70.8321C159.537 71.0167 159.074 71.2013 158.704 71.5706C158.333 71.8475 157.963 72.2167 157.685 72.6782C157.407 73.1398 157.222 73.6013 157.037 74.1552H166.019Z" fill="black"/>
<path id="Vector_8" d="M185.463 70.3708L177.037 55.7861H182.315L188.148 66.1246L194.259 55.7861H199.537L190.741 70.3708L200 86.34H194.815L188.056 74.7092L181.111 86.34H175.833L185.463 70.3708Z" fill="black"/>
</g>
<g id="Group_3">
<path id="Vector_9" d="M151.667 0.863281H138.333L129.537 13.7864L120.833 0.863281H107.037L122.685 23.7556L107.037 46.5556H120.833L129.537 33.6325L138.333 46.5556H151.667L136.204 23.7556L151.667 0.863281Z" fill="#0050FF"/>
<path id="Vector_10" d="M57.1296 0.863281V46.5556H101.759V0.863281H57.1296ZM68.5185 35.2017V12.2171H90.2778V35.2017H68.5185Z" fill="#FF6E4B"/>
</g>
</g>
</g>
</g>
<defs>
<clipPath id="clip0_2260_1874">
<rect width="200" height="96" fill="white" transform="translate(0 0.863281)"/>
</clipPath>
</defs>
</svg>
