<svg width="217" height="45" viewBox="0 0 217 45" fill="none" xmlns="http://www.w3.org/2000/svg">
<g id="OnePageX">
<path id="Vector" d="M0.575989 17.0137C0.575989 12.3288 2.30295 8.38356 5.63352 5.0548C8.96408 1.72604 13.0348 0 17.8456 0C22.6564 0 26.6038 1.72604 29.9343 5.0548C33.2649 8.38356 34.9918 12.452 34.9918 17.137C34.9918 21.8219 33.2649 25.8904 29.9343 29.2192C26.4804 32.5479 22.4097 34.1507 17.5989 34.1507C13.2815 34.1507 9.4575 32.6712 6.12693 29.7123C2.4263 26.5068 0.575989 22.1918 0.575989 16.8904L0.575989 17.0137ZM5.63352 17.137C5.63352 20.8356 6.86706 23.7945 9.33414 26.137C11.8012 28.4794 14.6384 29.7123 17.7222 29.7123C21.1762 29.7123 24.1367 28.4794 26.4804 26.137C28.8241 23.6712 30.0577 20.7123 30.0577 17.2603C30.0577 13.8082 28.8241 10.8493 26.4804 8.38356C24.1367 6.04109 21.2995 4.80822 17.8456 4.80822C14.3917 4.80822 11.5545 6.04109 9.21079 8.38356C6.86706 10.726 5.63352 13.6849 5.63352 17.137Z" fill="black"/>
<path id="Vector_2" d="M40.296 12.8219H45.1068V14.7945C46.8338 13.0685 48.6841 12.3287 50.7811 12.3287C53.2482 12.3287 55.0985 13.0685 56.4554 14.6712C57.5656 16.0274 58.1824 18.1233 58.1824 20.9589V33.6575H53.3716V22.0684C53.3716 19.9726 53.1249 18.6164 52.5081 17.8767C51.8913 17.137 50.9045 16.6438 49.4242 16.6438C47.8206 16.6438 46.7104 17.137 45.9703 18.2465C45.3536 19.2328 44.9835 21.0822 44.9835 23.6712V33.6575H40.1727V12.8219H40.296Z" fill="black"/>
<path id="Vector_3" d="M67.3106 25.2741C67.3106 26.7535 67.804 27.9864 68.7908 28.9727C69.7777 29.959 71.1346 30.4521 72.7382 30.4521C74.9585 30.4521 76.6855 29.5891 77.7957 27.9864L81.373 29.959C80.1394 31.5617 78.9059 32.7946 77.549 33.411C76.1921 34.0275 74.5885 34.3973 72.6148 34.3973C69.531 34.3973 67.0639 33.5343 65.2135 31.685C63.3632 29.8357 62.3764 27.37 62.3764 24.2878C62.3764 21.2056 63.3632 18.37 65.4603 16.2741C67.4339 14.1782 70.0244 13.0686 73.1082 13.0686C76.1921 13.0686 78.4125 14.0549 80.1394 16.0275C81.8664 18.0001 82.7299 20.5891 82.7299 23.9179C82.7299 24.2878 82.7299 24.7809 82.7299 25.6439H67.1872L67.3106 25.2741ZM78.1658 21.4522C77.6723 18.37 75.9454 16.7672 72.9849 16.7672C70.1477 16.7672 68.4208 18.37 67.5573 21.4522H78.1658Z" fill="black"/>
<path id="Vector_4" d="M94.3254 20.2187V33.657H89.3912V0.739258H95.0655C97.7793 0.739258 105.551 0.985835 107.031 1.3557C108.511 1.72556 109.745 2.46528 110.732 3.57487C112.582 5.42418 113.569 7.76665 113.569 10.6023C113.569 13.5612 112.582 16.0269 110.485 17.7529C108.511 19.479 105.674 20.342 102.343 20.342H94.3254V20.2187ZM94.3254 15.6571H101.85C106.414 15.6571 108.758 13.931 108.758 10.3557C108.758 6.78034 106.414 5.3009 101.727 5.3009H94.4488V15.6571H94.3254Z" fill="black"/>
<path id="Vector_5" d="M129.605 12.8216H134.415V33.6572H129.605V31.4381C127.631 33.2874 125.534 34.2737 123.19 34.2737C120.353 34.2737 117.886 33.2874 116.036 31.1915C114.185 29.0956 113.198 26.3833 113.198 23.3011C113.198 20.2189 114.185 17.6299 116.036 15.534C117.886 13.4381 120.23 12.4518 123.067 12.4518C125.534 12.4518 127.631 13.4381 129.605 15.4107V12.9449V12.8216ZM118.133 23.1778C118.133 25.1504 118.626 26.7531 119.736 27.986C120.846 29.2189 122.203 29.8353 123.93 29.8353C125.657 29.8353 127.138 29.2189 128.248 27.986C129.358 26.7531 129.851 25.1504 129.851 23.1778C129.851 21.2052 129.358 19.6025 128.248 18.3696C127.138 17.1367 125.781 16.5203 123.93 16.5203C122.327 16.5203 120.846 17.1367 119.736 18.3696C118.626 19.6025 118.133 21.2052 118.133 23.0545V23.1778Z" fill="black"/>
<path id="Vector_6" d="M159.826 33.1643C159.826 34.1506 159.826 35.0137 159.826 35.7534C159.826 36.4931 159.703 37.1095 159.58 37.726C159.21 39.3287 158.593 40.6849 157.606 41.7945C155.756 44.0136 153.165 44.9999 149.835 44.9999C146.998 44.9999 144.777 44.2602 142.927 42.7808C141.077 41.3013 139.966 39.0821 139.72 36.3698H144.531C144.777 37.3561 145.024 38.2191 145.394 38.7123C146.381 39.9452 147.861 40.6849 149.711 40.6849C153.289 40.6849 155.016 38.589 155.016 34.2739V31.315C153.165 33.2876 150.945 34.2739 148.354 34.2739C145.517 34.2739 143.174 33.2876 141.447 31.1917C139.596 29.0958 138.733 26.5068 138.733 23.4246C138.733 20.3424 139.596 17.8767 141.323 15.6575C143.174 13.4383 145.517 12.3287 148.601 12.3287C151.192 12.3287 153.412 13.315 155.139 15.2876V12.9452H159.95V33.2876L159.826 33.1643ZM155.262 23.3013C155.262 21.3287 154.769 19.6027 153.659 18.4931C152.549 17.2602 151.192 16.6438 149.465 16.6438C147.614 16.6438 146.257 17.2602 145.147 18.6164C144.16 19.8493 143.667 21.452 143.667 23.3013C143.667 25.1506 144.16 26.7534 145.147 27.9863C146.134 29.3424 147.614 29.9589 149.465 29.9589C151.315 29.9589 152.795 29.3424 153.782 27.9863C154.769 26.7534 155.262 25.2739 155.262 23.3013Z" fill="black"/>
<path id="Vector_7" d="M184.497 24.4108H169.571C169.695 26.1368 170.312 27.493 171.298 28.4793C172.285 29.4656 173.519 29.9587 175.122 29.9587C176.356 29.9587 177.343 29.7122 178.083 29.0957C178.823 28.4793 179.686 27.493 180.673 25.8902L184.744 28.1094C184.127 29.219 183.51 30.082 182.77 30.8217C182.03 31.5615 181.29 32.1779 180.55 32.6711C179.81 33.1642 178.946 33.5341 177.959 33.7806C176.973 34.0272 175.986 34.1505 174.999 34.1505C171.915 34.1505 169.448 33.1642 167.474 31.1916C165.624 29.219 164.637 26.5067 164.637 23.1779C164.637 19.8491 165.501 17.2601 167.351 15.1642C169.201 13.1916 171.668 12.2053 174.629 12.2053C177.589 12.2053 180.056 13.1916 181.907 15.1642C183.634 17.1368 184.497 19.7259 184.497 23.1779V24.2875V24.4108ZM179.563 20.4656C178.946 17.8766 177.219 16.6437 174.752 16.6437C174.135 16.6437 173.642 16.6437 173.149 16.8902C172.655 17.0135 172.162 17.3834 171.792 17.63C171.422 17.9998 171.052 18.3697 170.682 18.8629C170.435 19.356 170.188 19.8492 169.941 20.4656H179.563Z" fill="black"/>
<path id="Vector_8" d="M200.41 16.3977L191.282 0.616943H196.956L203.247 11.8361L209.908 0.616943H215.583L206.084 16.3977L216.076 33.658H210.525L203.247 21.0827L195.723 33.658H190.048L200.41 16.3977Z" fill="black"/>
</g>
</svg>
