<svg width="88" height="37" viewBox="0 0 88 37" fill="none" xmlns="http://www.w3.org/2000/svg">
<path d="M67.2025 35.9759V15.1919H73.0585V17.8799C74.1626 16.3439 76.1305 14.5199 79.4905 14.5199C81.3145 14.5199 84.0025 15.0479 85.6346 17.0639C87.0746 18.8399 87.2665 20.9039 87.2665 22.9199V35.9759H81.4105V24.6479C81.4105 23.4959 81.3625 21.6719 80.3065 20.5679C79.3945 19.6079 78.1465 19.5119 77.5705 19.5119C76.0345 19.5119 74.8345 20.0399 73.9706 21.3359C73.1066 22.6799 73.0585 24.1679 73.0585 25.3679V35.9759H67.2025Z" fill="black"/>
<path d="M54.8036 17.8799V15.1919H60.6596V35.9759H54.8036V33.2879C52.6916 36.3119 49.9076 36.6479 48.4196 36.6479C42.0356 36.6479 37.8116 31.6559 37.8116 25.5599C37.8116 19.4159 41.9876 14.5199 48.1316 14.5199C49.7156 14.5199 52.8356 14.8079 54.8036 17.8799ZM49.6196 19.7039C46.2596 19.7039 43.8596 22.2479 43.8596 25.5599C43.8596 28.8719 46.2596 31.4639 49.6196 31.4639C52.9796 31.4639 55.3796 28.8719 55.3796 25.5599C55.3796 22.2479 52.9796 19.7039 49.6196 19.7039Z" fill="black"/>
<path d="M26.4701 0.983887H32.3261V35.9759H26.4701V0.983887Z" fill="black"/>
<path d="M0.733429 3.95988H10.0454C13.6454 3.95988 16.1414 4.34389 18.4934 6.40788C21.0854 8.71189 21.7574 11.8319 21.7574 14.1359C21.7574 15.3839 21.5654 18.8399 19.1174 21.2879C17.3414 23.0639 14.7014 24.1199 11.0054 24.1199H6.97343V35.9759H0.733429V3.95988ZM6.97343 9.33589V18.7439H9.51743C10.7174 18.7439 12.2534 18.7439 13.5974 17.7359C14.7494 16.8239 15.3254 15.3839 15.3254 13.9919C15.3254 12.2159 14.4614 11.0159 13.5494 10.3439C12.2534 9.43188 10.6214 9.33589 9.13343 9.33589H6.97343Z" fill="black"/>
</svg>
