<svg width="108" height="35" viewBox="0 0 108 35" fill="none" xmlns="http://www.w3.org/2000/svg">
<rect width="108" height="35" fill="#1E1E1E"/>
<g id="1080&#239;&#188;&#136;PC&#239;&#188;&#137;">
<g id="Q&#239;&#188;&#134;A">
<rect width="1080" height="861.984" transform="translate(-486 -69.5771)" fill="#D6EBFF"/>
<g id="title">
<g id="Q&#38;A">
<path d="M100.938 33.1588L98.1064 26.4388H85.1944L82.3624 33.1588H75.5944L89.3704 1.14285H94.2664L107.658 33.1588H100.938ZM87.1624 21.3508H96.2824L91.7224 9.83084L87.1624 21.3508Z" fill="black"/>
<path d="M66.7642 17.6069L70.4122 21.2069C68.4922 23.6069 67.8682 24.1829 66.9562 25.0949L66.2362 25.8149L72.7162 33.1589H64.9882L61.8682 29.5589C60.3802 30.9029 56.6362 33.8789 51.5482 33.8789C44.9722 33.8789 41.5162 29.3189 41.5162 24.7109C41.5162 19.9589 45.2122 17.4629 46.6522 16.5989L49.1482 15.1109C48.0442 14.0069 45.9322 11.5109 45.9322 8.39085C45.9322 4.40685 48.8122 0.422852 54.7642 0.422852C60.3322 0.422852 63.3562 4.11885 63.3562 8.05485C63.3562 10.3589 62.2522 13.0949 58.8442 15.1589L57.5002 15.9749L62.7802 22.0229C64.9402 19.9109 66.0922 18.5189 66.7642 17.6069ZM58.3642 25.6229L52.3162 18.6629C49.8682 19.9589 47.7562 21.7349 47.7562 24.1829C47.7562 26.5829 49.7722 28.4069 52.4602 28.4069C55.0522 28.4069 57.3082 26.6789 58.3642 25.6229ZM53.1322 10.9349L54.5242 12.6629L55.9642 11.6549C57.6922 10.4549 58.1722 9.15885 58.1722 8.10285C58.1722 6.51885 57.2122 4.93485 55.0522 4.93485C52.7962 4.93485 51.7882 6.47085 51.7882 7.91085C51.7882 9.11085 52.4602 10.1189 53.1322 10.9349Z" fill="black"/>
<path d="M29.1896 34.4069L26.5496 31.5749C23.7176 33.2549 20.9816 33.8789 17.4296 33.8789C7.34965 33.8789 0.341644 26.9669 0.341644 17.1749C0.341644 7.43085 7.34965 0.422852 17.4296 0.422852C27.5096 0.422852 34.5176 7.43085 34.5176 17.1749C34.5176 23.1749 32.0216 26.6309 30.2936 28.5509L35.4776 33.7829L29.1896 34.4069ZM22.2776 20.2949L25.9736 24.0869C26.9816 22.7429 28.0856 20.7269 28.0856 17.1749C28.0856 10.6949 23.6696 6.08685 17.4296 6.08685C11.1896 6.08685 6.77364 10.6949 6.77364 17.1749C6.77364 23.6069 11.1416 28.2149 17.5736 28.2149C19.7336 28.2149 21.1736 27.7349 22.3256 27.1589L15.7976 20.8229L22.2776 20.2949Z" fill="black"/>
</g>
</g>
</g>
</g>
</svg>
