<svg width="16" height="15" viewBox="0 0 16 15" fill="none" xmlns="http://www.w3.org/2000/svg">
<path d="M13.32 11.7466L15.62 14.1066L12.44 14.5866L11.32 13.3066C10.14 13.9466 9.06001 14.1666 7.82001 14.1666C5.04 14.1666 3.3 13.0866 2.26 11.9666C0.980005 10.6066 0.380005 8.78656 0.380005 7.14656C0.380005 5.26656 1.18 3.46656 2.44 2.24656C3.78 0.946563 5.68001 0.226562 7.72001 0.226562C9.62001 0.226562 11.62 0.886563 13.02 2.22656C14.16 3.32656 15.08 5.06656 15.08 7.24656C15.08 8.16656 14.94 8.98656 14.54 9.92656C14.24 10.6266 13.88 11.1866 13.32 11.7466ZM6.66 8.54656L9.92 8.12656L10.84 9.12656C11.26 8.52656 11.46 7.80656 11.46 7.16656C11.46 6.34656 11.04 5.34656 10.38 4.68656C9.66 3.96656 8.58001 3.58656 7.72001 3.58656C6.76001 3.58656 5.78 3.96656 5.08 4.68656C4.4 5.38656 4 6.38656 4 7.36656C4 8.38656 4.44 9.24656 5.00001 9.78656C5.64 10.4066 6.66001 10.8066 7.70001 10.8066C8.12001 10.8066 8.46 10.7466 8.78 10.6666L6.66 8.54656Z" fill="white"/>
</svg>
