<svg width="20" height="34" viewBox="0 0 20 34" fill="none" xmlns="http://www.w3.org/2000/svg">
<path id="?" d="M11.9561 23.5359H6.00406V14.1279C6.58006 14.2719 7.20406 14.3199 7.87606 14.3199C9.74806 14.3199 11.3801 13.6959 12.3881 12.6879C13.1081 11.9199 13.6361 10.7679 13.6361 9.47194C13.6361 8.17595 13.2041 7.26394 12.6281 6.68795C12.1001 6.15995 11.3321 5.72795 10.1321 5.72795C8.74006 5.72795 7.97206 6.30394 7.68406 6.59194C7.15606 7.07195 6.62806 8.03195 6.62806 9.71195H0.388062C0.388062 7.21595 1.44406 4.67195 2.78806 3.23195C4.08406 1.88795 6.34006 0.543945 10.3721 0.543945C12.8681 0.543945 15.3641 1.02394 17.3801 2.99195C18.7241 4.28795 19.8761 6.39995 19.8761 9.61595C19.8761 12.2079 19.0601 14.1759 17.4281 15.8079C16.2281 17.0079 14.4041 18.1599 11.9561 18.4959V23.5359ZM5.23606 30.2559C5.23606 28.1439 6.86806 26.5119 8.98006 26.5119C11.0921 26.5119 12.7241 28.1439 12.7241 30.2559C12.7241 32.3679 11.0921 33.9999 8.98006 33.9999C6.86806 33.9999 5.23606 32.3679 5.23606 30.2559Z" fill="black"/>
</svg>
