<svg width="104" height="76" viewBox="0 0 104 76" fill="none" xmlns="http://www.w3.org/2000/svg">
<g clip-path="url(#clip0_2217_1625)">
<path d="M28.6251 71.8514L31.0328 75.1817H29.6283L27.4212 71.9846H27.2206V75.1817H26.0167V67.3887H27.4212C28.4244 67.3887 29.227 67.5885 29.6283 67.9881C30.1633 68.3878 30.364 68.9872 30.364 69.6533C30.364 70.1862 30.2302 70.6524 29.8958 71.0521C29.5614 71.4517 29.1601 71.7182 28.6251 71.7848V71.8514ZM27.2206 70.9855H27.6219C28.7588 70.9855 29.2939 70.5858 29.2939 69.7199C29.2939 68.9206 28.7588 68.521 27.6887 68.521H27.2875V70.9855H27.2206Z" fill="#FF6E4B"/>
<path d="M36.9183 68.521H33.7749V70.386H36.7846V71.4517H33.7749V74.0494H36.9183V75.1817H32.6379V67.3887H36.9183V68.521Z" fill="#FF6E4B"/>
<path d="M43.1383 68.5876L42.2019 69.1205C42.2019 69.1205 41.8675 68.5876 41.6669 68.521C41.4662 68.3878 41.2656 68.3878 40.9981 68.3878C40.6637 68.3878 40.3961 68.4544 40.1955 68.6542C39.9949 68.854 39.8611 69.0539 39.8611 69.3203C39.8611 69.7199 40.1286 69.9864 40.7305 70.2528L41.5331 70.5858C42.2019 70.8523 42.6032 71.1853 42.9376 71.5183C43.2051 71.8514 43.4058 72.3176 43.4058 72.8505C43.4058 73.5832 43.1383 74.1826 42.6701 74.6489C42.2019 75.1151 41.6 75.3816 40.8643 75.3816C40.1286 75.3816 39.5936 75.1817 39.1923 74.7821C38.7241 74.3825 38.4566 73.8496 38.3897 73.1169L39.5936 72.8505C39.5936 73.3167 39.7273 73.5832 39.8611 73.783C40.1286 74.116 40.463 74.3158 40.9312 74.3158C41.2656 74.3158 41.6 74.1826 41.8675 73.9828C42.135 73.7164 42.2688 73.4499 42.2688 73.0503C42.2688 72.9171 42.2688 72.7839 42.2688 72.6507C42.2688 72.5174 42.135 72.3842 42.0682 72.3176C42.0013 72.251 41.8675 72.1178 41.7338 72.0512C41.6 71.9846 41.3994 71.8514 41.1987 71.7848L40.463 71.4517C39.3929 70.9855 38.8579 70.3194 38.8579 69.4535C38.8579 68.854 39.0585 68.3878 39.5267 67.9881C39.9949 67.5885 40.5299 67.3887 41.1987 67.3887C42.0682 67.3887 42.8039 67.8549 43.3389 68.7208L43.1383 68.5876Z" fill="#FF6E4B"/>
<path d="M45.9473 67.3887V75.1817H44.7434V67.3887H45.9473Z" fill="#FF6E4B"/>
<path d="M49.0907 67.3887V74.0494H51.3646V75.1817H47.8868V67.3887H49.0907Z" fill="#FF6E4B"/>
<path d="M54.0399 67.3887V75.1817H52.836V67.3887H54.0399Z" fill="#FF6E4B"/>
<path d="M60.2598 68.521H57.1164V70.386H60.126V71.4517H57.1164V74.0494H60.2598V75.1817H55.9794V67.3887H60.2598V68.521Z" fill="#FF6E4B"/>
<path d="M61.7981 75.1819V66.856L67.483 72.784V67.3888H68.6868V75.6481L63.0019 69.7201V75.1819H61.7981Z" fill="#FF6E4B"/>
<path d="M75.9768 67.8551V69.2539C75.308 68.6544 74.5723 68.388 73.8367 68.388C73.0341 68.388 72.3653 68.6544 71.8302 69.2539C71.2952 69.8533 71.0276 70.5194 71.0276 71.3853C71.0276 72.2512 71.2952 72.8507 71.8302 73.4502C72.3653 73.983 73.0341 74.2494 73.8367 74.2494C74.2379 74.2494 74.5723 74.2494 74.9067 74.0496C75.0405 74.0496 75.2412 73.9164 75.4418 73.7832C75.6424 73.65 75.7762 73.5168 75.9768 73.3835V74.7823C75.308 75.1819 74.5723 75.3818 73.8367 75.3818C72.6997 75.3818 71.7633 74.9821 70.9608 74.1828C70.1582 73.3835 69.7569 72.451 69.7569 71.3853C69.7569 70.3862 70.0913 69.5203 70.7601 68.721C71.5627 67.7885 72.6328 67.3223 73.9035 67.3223C74.5723 67.3223 75.308 67.5221 75.91 67.9217L75.9768 67.8551Z" fill="#FF6E4B"/>
<path d="M82.063 68.521H78.9196V70.386H81.9293V71.4517H78.9196V74.0494H82.063V75.1817H77.7826V67.3887H82.063V68.521Z" fill="#FF6E4B"/>
<path d="M13.5768 43.6098L10.9016 45.2084C10.3666 44.3425 9.89839 43.743 9.43022 43.4766C8.96206 43.1436 8.36013 43.0103 7.55755 43.0103C6.62122 43.0103 5.88553 43.2768 5.2836 43.8096C4.68167 44.3425 4.34726 44.942 4.34726 45.7413C4.34726 46.807 5.14984 47.6729 6.75498 48.3389L8.96206 49.2048C10.7678 49.9375 12.0386 50.8034 12.908 51.8691C13.7775 52.9349 14.1788 54.2004 14.1788 55.6658C14.1788 57.664 13.51 59.3958 12.1723 60.6613C10.8347 61.9935 9.09582 62.6596 7.08939 62.6596C5.14984 62.6596 3.61157 62.1267 2.34083 60.9944C1.13698 59.862 0.334403 58.2635 0.0668793 56.1986L3.47781 55.4659C3.61157 56.7315 3.8791 57.664 4.28038 58.1302C4.94919 59.0627 5.95241 59.529 7.29003 59.529C8.36013 59.529 9.1627 59.196 9.89839 58.4633C10.5672 57.7972 10.9016 56.8647 10.9016 55.799C10.9016 55.3993 10.9016 54.9997 10.701 54.6C10.5003 54.2004 10.3666 53.934 10.1659 53.6009C9.89839 53.3345 9.56398 53.0015 9.1627 52.735C8.76141 52.4686 8.29325 52.2022 7.7582 52.0024L5.618 51.1365C2.60836 49.8709 1.07009 48.0059 1.07009 45.5414C1.07009 43.8762 1.67202 42.4775 2.94276 41.4118C4.2135 40.2794 5.81865 39.7466 7.69132 39.7466C10.2328 39.7466 12.2392 41.0121 13.6437 43.4766L13.5768 43.6098Z" fill="black"/>
<path d="M21.0006 69.9198H17.7904V48.4722H21.0006V50.0042C22.2714 48.7386 23.7428 48.1392 25.3479 48.1392C27.2875 48.1392 28.8257 48.8718 30.0965 50.2706C31.3672 51.6694 31.9691 53.4011 31.9691 55.5326C31.9691 57.664 31.3672 59.3292 30.0965 60.728C28.8257 62.1267 27.2875 62.7928 25.4148 62.7928C23.8096 62.7928 22.3383 62.1267 21.0675 60.8612V69.9864L21.0006 69.9198ZM28.6251 55.466C28.6251 54.1338 28.2907 53.0681 27.555 52.2022C26.8193 51.3363 25.883 50.9367 24.746 50.9367C23.5421 50.9367 22.6058 51.3363 21.8701 52.1356C21.1344 52.9349 20.8 54.0006 20.8 55.3328C20.8 56.6649 21.1344 57.7306 21.8701 58.5299C22.6058 59.3292 23.5421 59.7955 24.746 59.7955C25.883 59.7955 26.7524 59.3958 27.4881 58.5299C28.2238 57.664 28.6251 56.6649 28.6251 55.3994V55.466Z" fill="black"/>
<path d="M48.2212 56.1318H38.2559C38.3228 57.2641 38.7241 58.1966 39.3929 58.8627C40.0617 59.5287 40.8643 59.8618 41.9344 59.8618C42.737 59.8618 43.4058 59.662 43.9408 59.2623C44.4759 58.8627 45.0109 58.1966 45.6797 57.1309L48.4219 58.6629C48.0206 59.3955 47.5524 59.995 47.0842 60.5279C46.6161 61.0607 46.1479 61.4604 45.6129 61.7934C45.0778 62.1264 44.4759 62.3929 43.874 62.5261C43.272 62.6593 42.6032 62.7259 41.8675 62.7259C39.7942 62.7259 38.1222 62.0598 36.8514 60.7277C35.5807 59.3955 34.9788 57.5971 34.9788 55.3991C34.9788 53.201 35.5807 51.4026 36.7846 50.0705C37.9884 48.7383 39.6604 48.0723 41.6669 48.0723C43.6733 48.0723 45.3453 48.7383 46.5492 50.0039C47.7531 51.2694 48.355 53.0678 48.355 55.3991V56.1318H48.2212ZM44.8772 53.5341C44.409 51.8023 43.3389 50.9364 41.6 50.9364C41.1987 50.9364 40.8643 50.9364 40.5299 51.1362C40.1955 51.2694 39.8611 51.4026 39.5936 51.6691C39.326 51.8689 39.0585 52.1353 38.8579 52.4684C38.6572 52.8014 38.5235 53.1344 38.3897 53.5341H44.8772Z" fill="black"/>
<path d="M64.8077 56.1318H54.8424C54.9093 57.2641 55.3106 58.1966 55.9794 58.8627C56.6482 59.5287 57.4508 59.8618 58.5209 59.8618C59.3235 59.8618 59.9923 59.662 60.5273 59.2623C61.0624 58.8627 61.5974 58.1966 62.2662 57.1309L65.0084 58.6629C64.6071 59.3955 64.1389 59.995 63.6707 60.5279C63.2026 61.0607 62.7344 61.4604 62.1994 61.7934C61.6643 62.1264 61.0624 62.3929 60.4605 62.5261C59.8585 62.6593 59.1897 62.7259 58.454 62.7259C56.3807 62.7259 54.7087 62.0598 53.4379 60.7277C52.1672 59.3955 51.5653 57.5971 51.5653 55.3991C51.5653 53.201 52.1672 51.4026 53.3711 50.0705C54.5749 48.7383 56.2469 48.0723 58.2534 48.0723C60.2598 48.0723 61.9318 48.7383 63.1357 50.0039C64.3395 51.2694 64.9415 53.0678 64.9415 55.3991V56.1318H64.8077ZM61.4637 53.5341C60.9955 51.8023 59.9254 50.9364 58.1865 50.9364C57.7852 50.9364 57.4508 50.9364 57.1164 51.1362C56.782 51.2694 56.4476 51.4026 56.1801 51.6691C55.9125 51.8689 55.645 52.1353 55.4444 52.4684C55.2437 52.8014 55.11 53.1344 54.9762 53.5341H61.4637Z" fill="black"/>
<path d="M78.7858 40.3462H81.9961V62.3267H78.7858V60.8613C77.5151 62.1268 76.1106 62.7263 74.5055 62.7263C72.5659 62.7263 71.0277 62.0602 69.7569 60.6615C68.4862 59.2627 67.8842 57.4643 67.8842 55.3329C67.8842 53.2014 68.4862 51.5362 69.7569 50.1375C71.0277 48.7387 72.5659 48.0727 74.4386 48.0727C76.0437 48.0727 77.5151 48.7387 78.7858 50.0709V40.3462ZM71.1614 55.3329C71.1614 56.665 71.4958 57.7307 72.2315 58.5966C72.9672 59.4625 73.9035 59.8622 75.0405 59.8622C76.2444 59.8622 77.1807 59.4625 77.9164 58.6632C78.6521 57.7973 78.9865 56.7316 78.9865 55.4661C78.9865 54.2005 78.6521 53.0682 77.9164 52.2689C77.1807 51.4696 76.2444 51.0034 75.0405 51.0034C73.9035 51.0034 73.0341 51.403 72.2315 52.2689C71.4958 53.1348 71.1614 54.1339 71.1614 55.3995V55.3329Z" fill="black"/>
<path d="M93.4997 50.8033L87.4135 40.2793H91.2257L95.4392 47.7393L99.8534 40.2793H103.666L97.3119 50.8033L104 62.3264H100.255L95.3723 53.9338L90.3563 62.3264H86.544L93.4997 50.8033Z" fill="black"/>
<path d="M86.1428 0.647949H76.5788L70.1582 9.97299L63.8714 0.647949H53.9061L65.209 17.1666L53.9061 33.6186H63.8714L70.1582 24.2936L76.5788 33.6186H86.1428L74.9736 17.1666L86.1428 0.647949Z" fill="#0050FF"/>
<path d="M45.8804 0.647949H35.9151L47.218 17.1666L35.9151 33.6186H45.8804L56.9826 17.1666L45.8804 0.647949Z" fill="#FF6E4B"/>
<path d="M27.8225 0.647949H17.8572L29.1601 17.1666L17.8572 33.6186H27.8225L38.9248 17.1666L27.8225 0.647949Z" fill="#FF6E4B"/>
</g>
<defs>
<clipPath id="clip0_2217_1625">
<rect width="104" height="75" fill="white" transform="translate(0 0.647949)"/>
</clipPath>
</defs>
</svg>
