<svg width="74" height="40" viewBox="0 0 74 40" fill="none" xmlns="http://www.w3.org/2000/svg">
<g id="SpeedX Resilience">
<path d="M72.1063 29.1389V30.5789H68.1163V33.114H71.9863V34.554H68.1163V37.704H72.1063V39.144H66.5863V29.1389H72.1063Z" fill="black"/>
<path d="M64.6946 29.6789V31.4789C63.5846 30.4739 62.5496 30.3689 61.9796 30.3689C59.8046 30.3689 58.3346 31.974 58.3346 34.179C58.3346 36.294 59.8646 37.929 61.9946 37.929C63.1946 37.929 64.1246 37.314 64.6946 36.774V38.589C63.6896 39.1889 62.6396 39.339 61.9496 39.339C60.1346 39.339 58.9946 38.514 58.4096 37.959C57.2396 36.8639 56.8046 35.589 56.8046 34.179C56.8046 32.334 57.5696 31.0589 58.4096 30.2639C59.4446 29.2889 60.6446 28.9589 62.0246 28.9589C62.9396 28.9589 63.8246 29.1239 64.6946 29.6789Z" fill="black"/>
<path d="M47.6232 39.144H46.0932V28.4639L53.3532 36.069V29.1389H54.8832V39.759L47.6232 32.1539V39.144Z" fill="black"/>
<path d="M44.1132 29.1389V30.5789H40.1232V33.114H43.9932V34.554H40.1232V37.704H44.1132V39.144H38.5932V29.1389H44.1132Z" fill="black"/>
<path d="M34.6674 29.1389H36.1974V39.144H34.6674V29.1389Z" fill="black"/>
<path d="M28.7641 29.1389H30.2941V37.704H33.2341V39.144H28.7641V29.1389Z" fill="black"/>
<path d="M24.8383 29.1389H26.3683V39.144H24.8383V29.1389Z" fill="black"/>
<path d="M22.6539 30.6389L21.4239 31.3589C21.3339 31.1339 21.1989 30.9239 20.9739 30.7289C20.6589 30.4739 20.3289 30.3689 19.8939 30.3689C18.9639 30.3689 18.4839 30.9239 18.4839 31.5689C18.4839 31.8689 18.5889 32.394 19.5639 32.784L20.5689 33.1889C22.4139 33.9389 22.9239 34.989 22.9239 36.129C22.9239 38.034 21.5739 39.339 19.6989 39.339C18.5439 39.339 17.8539 38.9039 17.3439 38.334C16.8039 37.734 16.5639 37.0739 16.5039 36.3839L18.0189 36.054C18.0189 36.549 18.1989 37.014 18.4389 37.329C18.7239 37.689 19.1439 37.929 19.7439 37.929C20.6739 37.929 21.3939 37.254 21.3939 36.249C21.3939 35.229 20.6139 34.809 19.9539 34.539L18.9939 34.1339C18.1689 33.7889 16.9539 33.0989 16.9539 31.5989C16.9539 30.2489 18.0039 28.9589 19.8789 28.9589C20.9589 28.9589 21.5739 29.364 21.8889 29.634C22.1589 29.874 22.4439 30.2189 22.6539 30.6389Z" fill="black"/>
<path d="M15.1239 29.1389V30.5789H11.1339V33.114H15.0039V34.554H11.1339V37.704H15.1239V39.144H9.60392V29.1389H15.1239Z" fill="black"/>
<path d="M1.59122 29.1389H3.37622C4.59122 29.1389 5.37122 29.2889 6.01622 29.7239C7.11122 30.4589 7.20122 31.644 7.20122 32.079C7.20122 33.519 6.31622 34.569 4.98122 34.8689L8.10122 39.144H6.25622L3.39122 35.049H3.12122V39.144H1.59122V29.1389ZM3.12122 30.5489V33.729H3.60122C4.02122 33.729 5.73122 33.684 5.73122 32.094C5.73122 30.684 4.39622 30.5489 3.64622 30.5489H3.12122Z" fill="black"/>
<path d="M60.8202 18.1439L65.8602 9.79195L61.4442 2.13595H64.1802L67.3002 7.55995L70.4922 2.13595H73.2282L68.6202 9.79195L73.4442 18.1439H70.7082L67.2042 12.0239L63.5562 18.1439H60.8202Z" fill="black"/>
<path d="M56.7336 9.21595V0.647949H59.0856V18.1439H56.7336V17.0879C55.7016 18.288 54.4296 18.4559 53.7096 18.4559C50.5896 18.4559 48.8136 15.8639 48.8136 13.0799C48.8136 9.79195 51.0696 7.77595 53.7336 7.77595C54.4776 7.77595 55.7736 7.96795 56.7336 9.21595ZM54.0216 9.88795C52.3176 9.88795 51.2136 11.3279 51.2136 13.1279C51.2136 14.8799 52.3176 16.344 54.0216 16.344C55.5096 16.344 56.8776 15.2639 56.8776 13.1519C56.8776 10.9439 55.5096 9.88795 54.0216 9.88795Z" fill="black"/>
<path d="M44.8435 14.7359L46.8115 15.8399C46.3795 16.6079 45.7555 17.2799 45.1075 17.688C44.2915 18.216 43.2115 18.4559 42.1315 18.4559C40.7875 18.4559 39.6835 18.1199 38.7235 17.16C37.7635 16.2 37.2355 14.808 37.2355 13.2959C37.2355 11.7359 37.7875 10.2239 38.8435 9.14395C39.6835 8.30395 40.7875 7.77595 42.2275 7.77595C43.8355 7.77595 44.8675 8.47195 45.4675 9.09595C46.7635 10.4399 46.8835 12.3119 46.8835 13.3679V13.6559H39.6355C39.6835 14.3759 39.9955 15.1919 40.4995 15.6959C41.0515 16.2479 41.7235 16.344 42.2995 16.344C42.9475 16.344 43.4275 16.1999 43.9075 15.8399C44.3155 15.5279 44.6275 15.1199 44.8435 14.7359ZM39.8035 11.7359H44.4835C44.3875 11.1839 44.1235 10.7039 43.7635 10.3679C43.4515 10.0799 42.9475 9.79195 42.1795 9.79195C41.3635 9.79195 40.8355 10.1279 40.5235 10.4399C40.1875 10.7519 39.9235 11.2319 39.8035 11.7359Z" fill="black"/>
<path d="M33.2654 14.7359L35.2334 15.8399C34.8014 16.6079 34.1774 17.2799 33.5294 17.688C32.7134 18.216 31.6334 18.4559 30.5534 18.4559C29.2094 18.4559 28.1054 18.1199 27.1454 17.16C26.1854 16.2 25.6574 14.808 25.6574 13.2959C25.6574 11.7359 26.2094 10.2239 27.2654 9.14395C28.1054 8.30395 29.2094 7.77595 30.6494 7.77595C32.2574 7.77595 33.2894 8.47195 33.8894 9.09595C35.1854 10.4399 35.3054 12.3119 35.3054 13.3679V13.6559H28.0574C28.1054 14.3759 28.4174 15.1919 28.9214 15.6959C29.4734 16.2479 30.1454 16.344 30.7214 16.344C31.3694 16.344 31.8494 16.1999 32.3294 15.8399C32.7374 15.5279 33.0494 15.1199 33.2654 14.7359ZM28.2254 11.7359H32.9054C32.8094 11.1839 32.5454 10.7039 32.1854 10.3679C31.8734 10.0799 31.3694 9.79195 30.6014 9.79195C29.7854 9.79195 29.2574 10.1279 28.9454 10.4399C28.6094 10.7519 28.3454 11.2319 28.2254 11.7359Z" fill="black"/>
<path d="M15.8108 16.9679V23.6399H13.4588V8.03995H15.8108V9.14395C16.6748 8.11195 17.8028 7.77595 18.8108 7.77595C21.4748 7.77595 23.7308 9.81595 23.7308 13.0319C23.7308 16.4399 21.2348 18.4559 18.8348 18.4559C18.2828 18.4559 16.8668 18.2639 15.8108 16.9679ZM18.5228 9.88795C17.0348 9.88795 15.6668 10.9439 15.6668 13.1519C15.6668 15.2639 17.0348 16.344 18.5228 16.344C20.2268 16.344 21.3308 14.8799 21.3308 13.1279C21.3308 11.3279 20.2268 9.88795 18.5228 9.88795Z" fill="black"/>
<path d="M10.3958 4.53595L8.42781 5.68795C8.28381 5.32795 8.06781 4.99195 7.70781 4.67995C7.20381 4.27195 6.67581 4.10395 5.97981 4.10395C4.49181 4.10395 3.72381 4.99195 3.72381 6.02395C3.72381 6.50395 3.89181 7.34395 5.45181 7.96795L7.05981 8.61595C10.0118 9.81595 10.8278 11.4959 10.8278 13.32C10.8278 16.368 8.66781 18.456 5.66781 18.456C3.81981 18.456 2.71581 17.76 1.89981 16.8479C1.03581 15.8879 0.651813 14.8319 0.555813 13.7279L2.97981 13.1999C2.97981 13.9919 3.26781 14.736 3.65181 15.24C4.10781 15.816 4.77981 16.1999 5.73981 16.1999C7.22781 16.1999 8.37981 15.1199 8.37981 13.5119C8.37981 11.8799 7.13181 11.2079 6.07581 10.7759L4.53981 10.1279C3.21981 9.57595 1.27581 8.47195 1.27581 6.07195C1.27581 3.91195 2.95581 1.84795 5.95581 1.84795C7.68381 1.84795 8.66781 2.49595 9.17181 2.92795C9.60381 3.31195 10.0598 3.86395 10.3958 4.53595Z" fill="black"/>
</g>
</svg>
