<svg width="104" height="71" viewBox="0 0 104 71" fill="none" xmlns="http://www.w3.org/2000/svg">
<g clip-path="url(#clip0_2217_1610)">
<path d="M13.5768 44.0616L10.9016 45.6769C10.3666 44.8019 9.89839 44.1962 9.43022 43.9269C8.96206 43.5904 8.36013 43.4558 7.55755 43.4558C6.62122 43.4558 5.88553 43.725 5.2836 44.2635C4.68167 44.8019 4.34726 45.4077 4.34726 46.2154C4.34726 47.2923 5.14984 48.1673 6.75498 48.8404L8.96206 49.7154C10.7678 50.4558 12.0386 51.3308 12.908 52.4077C13.7775 53.4846 14.1788 54.7635 14.1788 56.2443C14.1788 58.2635 13.51 60.0135 12.1723 61.2923C10.8347 62.6385 9.09582 63.3116 7.08939 63.3116C5.14984 63.3116 3.61157 62.7731 2.34083 61.6289C1.13698 60.4846 0.334403 58.8693 0.0668793 56.7827L3.47781 56.0423C3.61157 57.3212 3.8791 58.2635 4.28038 58.7346C4.94919 59.677 5.95241 60.1481 7.29003 60.1481C8.36013 60.1481 9.1627 59.8116 9.89839 59.0712C10.5672 58.3981 10.9016 57.4558 10.9016 56.3789C10.9016 55.975 10.9016 55.5712 10.701 55.1673C10.5003 54.7635 10.3666 54.4943 10.1659 54.1577C9.89839 53.8885 9.56398 53.5519 9.1627 53.2827C8.76141 53.0135 8.29325 52.7443 7.7582 52.5423L5.618 51.6673C2.60836 50.3885 1.07009 48.5039 1.07009 46.0135C1.07009 44.3308 1.67202 42.9173 2.94276 41.8404C4.2135 40.6962 5.81865 40.1577 7.69132 40.1577C10.2328 40.1577 12.2392 41.4366 13.6437 43.9269L13.5768 44.0616Z" fill="black"/>
<path d="M21.0006 70.6483H17.7903V48.9752H21.0006V50.5233C22.2714 49.2444 23.7428 48.6387 25.3479 48.6387C27.2874 48.6387 28.8257 49.3791 30.0965 50.7925C31.3672 52.206 31.9691 53.956 31.9691 56.1098C31.9691 58.2637 31.3672 59.9464 30.0965 61.3598C28.8257 62.7733 27.2874 63.4464 25.4148 63.4464C23.8096 63.4464 22.3383 62.7733 21.0675 61.4944V70.7156L21.0006 70.6483ZM28.6251 56.0425C28.6251 54.6964 28.2907 53.6194 27.555 52.7444C26.8193 51.8694 25.8829 51.4656 24.746 51.4656C23.5421 51.4656 22.6058 51.8694 21.8701 52.6771C21.1344 53.4848 20.8 54.5617 20.8 55.9079C20.8 57.2541 21.1344 58.331 21.8701 59.1387C22.6058 59.9464 23.5421 60.4175 24.746 60.4175C25.8829 60.4175 26.7524 60.0137 27.4881 59.1387C28.2238 58.2637 28.6251 57.2541 28.6251 55.9752V56.0425Z" fill="black"/>
<path d="M48.2212 56.7155H38.2559C38.3228 57.8598 38.7241 58.8021 39.3929 59.4751C40.0617 60.1482 40.8643 60.4848 41.9344 60.4848C42.737 60.4848 43.4058 60.2828 43.9408 59.879C44.4759 59.4751 45.0109 58.8021 45.6797 57.7251L48.4219 59.2732C48.0206 60.0136 47.5524 60.6194 47.0842 61.1578C46.6161 61.6963 46.1479 62.1001 45.6129 62.4367C45.0778 62.7732 44.4759 63.0424 43.874 63.1771C43.272 63.3117 42.6032 63.379 41.8675 63.379C39.7942 63.379 38.1222 62.7059 36.8514 61.3598C35.5807 60.0136 34.9788 58.1963 34.9788 55.9751C34.9788 53.754 35.5807 51.9367 36.7846 50.5905C37.9884 49.2444 39.6604 48.5713 41.6669 48.5713C43.6733 48.5713 45.3453 49.2444 46.5492 50.5232C47.7531 51.8021 48.355 53.6194 48.355 55.9751V56.7155H48.2212ZM44.8772 54.0905C44.409 52.3405 43.3389 51.4655 41.6 51.4655C41.1987 51.4655 40.8643 51.4655 40.5299 51.6674C40.1955 51.8021 39.8611 51.9367 39.5936 52.2059C39.326 52.4078 39.0585 52.6771 38.8579 53.0136C38.6572 53.3501 38.5235 53.6867 38.3897 54.0905H44.8772Z" fill="black"/>
<path d="M64.8077 56.7155H54.8424C54.9093 57.8598 55.3106 58.8021 55.9794 59.4751C56.6482 60.1482 57.4508 60.4848 58.5209 60.4848C59.3235 60.4848 59.9923 60.2828 60.5273 59.879C61.0624 59.4751 61.5974 58.8021 62.2662 57.7251L65.0084 59.2732C64.6071 60.0136 64.1389 60.6194 63.6707 61.1578C63.2026 61.6963 62.7344 62.1001 62.1994 62.4367C61.6643 62.7732 61.0624 63.0424 60.4605 63.1771C59.8585 63.3117 59.1897 63.379 58.454 63.379C56.3807 63.379 54.7087 62.7059 53.4379 61.3598C52.1672 60.0136 51.5653 58.1963 51.5653 55.9751C51.5653 53.754 52.1672 51.9367 53.3711 50.5905C54.5749 49.2444 56.2469 48.5713 58.2534 48.5713C60.2598 48.5713 61.9318 49.2444 63.1357 50.5232C64.3396 51.8021 64.9415 53.6194 64.9415 55.9751V56.7155H64.8077ZM61.4637 54.0905C60.9955 52.3405 59.9254 51.4655 58.1865 51.4655C57.7852 51.4655 57.4508 51.4655 57.1164 51.6674C56.782 51.8021 56.4476 51.9367 56.1801 52.2059C55.9125 52.4078 55.645 52.6771 55.4444 53.0136C55.2437 53.3501 55.11 53.6867 54.9762 54.0905H61.4637Z" fill="black"/>
<path d="M78.7859 40.7637H81.9961V62.9752H78.7859V61.4944C77.5151 62.7733 76.1106 63.3791 74.5055 63.3791C72.5659 63.3791 71.0277 62.706 69.7569 61.2925C68.4862 59.8791 67.8842 58.0618 67.8842 55.9079C67.8842 53.7541 68.4862 52.0714 69.7569 50.6579C71.0277 49.2444 72.5659 48.5714 74.4386 48.5714C76.0437 48.5714 77.5151 49.2444 78.7859 50.5906V40.7637ZM71.1614 55.9079C71.1614 57.2541 71.4958 58.331 72.2315 59.206C72.9672 60.081 73.9035 60.4848 75.0405 60.4848C76.2444 60.4848 77.1807 60.081 77.9164 59.2733C78.6521 58.3983 78.9865 57.3214 78.9865 56.0425C78.9865 54.7637 78.6521 53.6194 77.9164 52.8117C77.1807 52.0041 76.2444 51.5329 75.0405 51.5329C73.9035 51.5329 73.0341 51.9367 72.2315 52.8117C71.4958 53.6867 71.1614 54.6964 71.1614 55.9752V55.9079Z" fill="black"/>
<path d="M93.4997 51.3309L87.4135 40.6963H91.2257L95.4392 48.2348L99.8534 40.6963H103.666L97.3119 51.3309L104 62.9751H100.255L95.3723 54.4944L90.3563 62.9751H86.544L93.4997 51.3309Z" fill="black"/>
<path d="M86.1428 0.647949H76.5788L70.1582 10.071L63.8714 0.647949H53.9061L65.209 17.3403L53.9061 33.9653H63.8714L70.1582 24.5422L76.5788 33.9653H86.1428L74.9736 17.3403L86.1428 0.647949Z" fill="#0050FF"/>
<path d="M45.8804 0.647949H35.9151L47.218 17.3403L35.9151 33.9653H45.8804L56.9826 17.3403L45.8804 0.647949Z" fill="#FF6E4B"/>
<path d="M27.8225 0.647949H17.8572L29.1601 17.3403L17.8572 33.9653H27.8225L38.9248 17.3403L27.8225 0.647949Z" fill="#FF6E4B"/>
</g>
<defs>
<clipPath id="clip0_2217_1610">
<rect width="104" height="70" fill="white" transform="translate(0 0.647949)"/>
</clipPath>
</defs>
</svg>
