<svg width="38" height="32" viewBox="0 0 38 32" fill="none" xmlns="http://www.w3.org/2000/svg">
<path d="M35.0769 0.422852H2.92308C2.14783 0.422852 1.40433 0.719766 0.856149 1.24828C0.307966 1.77679 0 2.4936 0 3.24103V28.6047C0 29.3521 0.307966 30.0689 0.856149 30.5974C1.40433 31.1259 2.14783 31.4229 2.92308 31.4229H35.0769C35.8522 31.4229 36.5957 31.1259 37.1438 30.5974C37.692 30.0689 38 29.3521 38 28.6047V3.24103C38 2.4936 37.692 1.77679 37.1438 1.24828C36.5957 0.719766 35.8522 0.422852 35.0769 0.422852ZM12.5692 19.0229C12.8793 19.2471 13.0843 19.5809 13.1392 19.9508C13.194 20.3208 13.0941 20.6966 12.8615 20.9956C12.629 21.2945 12.2827 21.4922 11.899 21.5451C11.5153 21.5979 11.1255 21.5016 10.8154 21.2774L4.96923 17.0501C4.78771 16.9189 4.64039 16.7487 4.53891 16.553C4.43744 16.3574 4.38462 16.1416 4.38462 15.9229C4.38462 15.7041 4.43744 15.4883 4.53891 15.2927C4.64039 15.097 4.78771 14.9268 4.96923 14.7956L10.8154 10.5683C11.1255 10.3441 11.5153 10.2478 11.899 10.3007C12.2827 10.3535 12.629 10.5512 12.8615 10.8501C13.0941 11.1491 13.194 11.5249 13.1392 11.8949C13.0843 12.2648 12.8793 12.5986 12.5692 12.8229L8.28144 15.9229L12.5692 19.0229ZM23.328 6.44671L17.4818 26.174C17.432 26.3551 17.3452 26.5247 17.2266 26.6731C17.1079 26.8214 16.9598 26.9455 16.7908 27.038C16.6218 27.1305 16.4354 27.1896 16.2425 27.2118C16.0496 27.234 15.854 27.2189 15.6672 27.1674C15.4803 27.1159 15.3061 27.029 15.1545 26.9117C15.0029 26.7945 14.8772 26.6493 14.7845 26.4846C14.6918 26.32 14.6342 26.1391 14.6149 25.9527C14.5955 25.7663 14.615 25.5781 14.672 25.399L20.5182 5.67172C20.6305 5.31898 20.8819 5.02281 21.2183 4.84684C21.5548 4.67088 21.9493 4.62916 22.3173 4.73065C22.6853 4.83215 22.9973 5.06875 23.1863 5.38963C23.3752 5.71051 23.4261 6.09005 23.328 6.44671ZM33.0308 17.0501L27.1846 21.2774C26.8745 21.5016 26.4847 21.5979 26.101 21.5451C25.7173 21.4922 25.371 21.2945 25.1385 20.9956C24.9059 20.6966 24.806 20.3208 24.8608 19.9508C24.9157 19.5809 25.1207 19.2471 25.4308 19.0229L29.7186 15.9229L25.4308 12.8229C25.2772 12.7118 25.1479 12.5727 25.0501 12.4135C24.9523 12.2543 24.888 12.078 24.8608 11.8949C24.8337 11.7117 24.8442 11.5251 24.8919 11.3459C24.9395 11.1666 25.0233 10.9982 25.1385 10.8501C25.2536 10.7021 25.3979 10.5774 25.563 10.4831C25.7282 10.3888 25.911 10.3268 26.101 10.3007C26.291 10.2745 26.4845 10.2846 26.6704 10.3306C26.8563 10.3765 27.0311 10.4573 27.1846 10.5683L33.0308 14.7956C33.2123 14.9268 33.3596 15.097 33.4611 15.2927C33.5626 15.4883 33.6154 15.7041 33.6154 15.9229C33.6154 16.1416 33.5626 16.3574 33.4611 16.553C33.3596 16.7487 33.2123 16.9189 33.0308 17.0501Z" fill="#FF6E4B"/>
</svg>
