<svg width="40" height="14" viewBox="0 0 40 14" fill="none" xmlns="http://www.w3.org/2000/svg">
<path d="M0.0640001 1.08485H2.5C3.802 1.08485 4.936 1.22485 5.972 1.99485C7.106 2.84885 7.764 4.20685 7.764 5.76085C7.764 7.31485 7.12 8.65885 5.888 9.52685C4.796 10.2969 3.774 10.4229 2.472 10.4229H0.0640001V1.08485ZM1.884 2.65285V8.85485H2.444C2.906 8.85485 3.914 8.82685 4.726 8.23885C5.468 7.70685 5.888 6.75485 5.888 5.76085C5.888 4.78085 5.482 3.82885 4.74 3.26885C3.984 2.70885 3.06 2.65285 2.444 2.65285H1.884ZM13.5729 8.47685L15.1409 8.72885C14.9589 9.17685 14.2729 10.6189 12.1589 10.6189C11.1789 10.6189 10.4369 10.3389 9.83491 9.76485C9.16291 9.13485 8.88291 8.35085 8.88291 7.39885C8.88291 6.19485 9.37291 5.45285 9.80691 5.01885C10.5209 4.31885 11.3609 4.16485 12.0889 4.16485C13.3209 4.16485 14.0349 4.65485 14.4549 5.15885C15.0989 5.92885 15.1829 6.88085 15.1829 7.53885V7.67885H10.6469C10.6469 8.04285 10.7449 8.43485 10.9409 8.70085C11.1229 8.95285 11.5009 9.27485 12.1589 9.27485C12.8029 9.27485 13.2929 8.96685 13.5729 8.47685ZM10.7029 6.58685H13.5729C13.4329 5.76085 12.7609 5.36885 12.1309 5.36885C11.5009 5.36885 10.8429 5.77485 10.7029 6.58685ZM20.6494 4.80885L19.8094 5.80285C19.4034 5.42485 18.9974 5.39685 18.8154 5.39685C18.4094 5.39685 18.1574 5.59285 18.1574 5.88685C18.1574 6.04085 18.2274 6.27885 18.7034 6.43285L19.1094 6.55885C19.5854 6.71285 20.2994 6.95085 20.6494 7.42685C20.8314 7.67885 20.9574 8.04285 20.9574 8.43485C20.9574 8.98085 20.7754 9.52685 20.2854 9.97485C19.7954 10.4229 19.2074 10.6189 18.4654 10.6189C17.2054 10.6189 16.4914 10.0169 16.1134 9.61085L17.0094 8.57485C17.3454 8.96685 17.8494 9.27485 18.3534 9.27485C18.8294 9.27485 19.1934 9.03685 19.1934 8.61685C19.1934 8.23885 18.8854 8.08485 18.6614 8.00085L18.2694 7.86085C17.8354 7.70685 17.3314 7.51085 16.9674 7.13285C16.6874 6.83885 16.5054 6.46085 16.5054 5.97085C16.5054 5.38285 16.7854 4.89285 17.1354 4.59885C17.6114 4.22085 18.2274 4.16485 18.7174 4.16485C19.1654 4.16485 19.8794 4.22085 20.6494 4.80885ZM22.1655 4.36085H23.8735V10.4229H22.1655V4.36085ZM21.9975 1.79885C21.9975 1.23885 22.4595 0.776851 23.0195 0.776851C23.5795 0.776851 24.0415 1.23885 24.0415 1.79885C24.0415 2.35885 23.5795 2.82085 23.0195 2.82085C22.4595 2.82085 21.9975 2.35885 21.9975 1.79885ZM30.1215 5.14485V4.36085H31.8295V10.1429C31.8295 11.0669 31.7455 12.0329 30.9895 12.7889C30.5695 13.2089 29.8415 13.6429 28.5955 13.6429C27.4195 13.6429 26.7195 13.2929 26.3275 12.9429C25.8515 12.5369 25.4875 11.8229 25.3475 11.1369H27.1955C27.2655 11.4169 27.4195 11.6969 27.6155 11.8649C27.9515 12.1729 28.4135 12.1869 28.6515 12.1869C29.1415 12.1869 29.4635 12.0189 29.6875 11.8089C30.0795 11.4309 30.1215 10.9549 30.1215 10.4649V9.61085C29.5335 10.5069 28.7215 10.6189 28.2595 10.6189C27.4475 10.6189 26.7475 10.3669 26.1595 9.79285C25.7115 9.34485 25.1935 8.56085 25.1935 7.38485C25.1935 6.43285 25.5435 5.55085 26.1315 4.97685C26.6635 4.45885 27.4055 4.16485 28.2175 4.16485C29.3515 4.16485 29.8835 4.78085 30.1215 5.14485ZM28.6375 5.67685C28.0915 5.67685 27.7135 5.90085 27.5035 6.09685C27.2235 6.34885 26.9575 6.75485 26.9575 7.38485C26.9575 7.91685 27.1535 8.30885 27.4055 8.57485C27.7695 8.96685 28.2315 9.10685 28.6375 9.10685C29.0575 9.10685 29.4775 8.95285 29.7715 8.68685C30.1215 8.36485 30.3175 7.87485 30.3175 7.38485C30.3175 6.81085 30.0655 6.41885 29.8275 6.16685C29.4915 5.81685 29.0995 5.67685 28.6375 5.67685ZM33.4585 10.4229V4.36085H35.1665V5.14485C35.4885 4.69685 36.0625 4.16485 37.0425 4.16485C37.5745 4.16485 38.3585 4.31885 38.8345 4.90685C39.2545 5.42485 39.3105 6.02685 39.3105 6.61485V10.4229H37.6025V7.11885C37.6025 6.78285 37.5885 6.25085 37.2805 5.92885C37.0145 5.64885 36.6505 5.62085 36.4825 5.62085C36.0345 5.62085 35.6845 5.77485 35.4325 6.15285C35.1805 6.54485 35.1665 6.97885 35.1665 7.32885V10.4229H33.4585Z" fill="#FF6E4B"/>
</svg>
