<svg width="48" height="14" viewBox="0 0 48 14" fill="none" xmlns="http://www.w3.org/2000/svg">
<path d="M2.384 1.08485V4.69685H6.332V1.08485H8.152V10.4229H6.332V6.26485H2.384V10.4229H0.564V1.08485H2.384ZM14.4147 8.47685L15.9827 8.72885C15.8007 9.17685 15.1147 10.6189 13.0007 10.6189C12.0207 10.6189 11.2787 10.3389 10.6767 9.76485C10.0047 9.13485 9.7247 8.35085 9.7247 7.39885C9.7247 6.19485 10.2147 5.45285 10.6487 5.01885C11.3627 4.31885 12.2027 4.16485 12.9307 4.16485C14.1627 4.16485 14.8767 4.65485 15.2967 5.15885C15.9407 5.92885 16.0247 6.88085 16.0247 7.53885V7.67885H11.4887C11.4887 8.04285 11.5867 8.43485 11.7827 8.70085C11.9647 8.95285 12.3427 9.27485 13.0007 9.27485C13.6447 9.27485 14.1347 8.96685 14.4147 8.47685ZM11.5447 6.58685H14.4147C14.2747 5.76085 13.6027 5.36885 12.9727 5.36885C12.3427 5.36885 11.6847 5.77485 11.5447 6.58685ZM22.1319 5.14485V4.36085H23.8399V10.4229H22.1319V9.63885C21.5159 10.5209 20.7039 10.6189 20.2699 10.6189C18.4079 10.6189 17.1759 9.16285 17.1759 7.38485C17.1759 5.59285 18.3939 4.16485 20.1859 4.16485C20.6479 4.16485 21.5579 4.24885 22.1319 5.14485ZM20.6199 5.67685C19.6399 5.67685 18.9399 6.41885 18.9399 7.38485C18.9399 8.35085 19.6399 9.10685 20.6199 9.10685C21.5999 9.10685 22.2999 8.35085 22.2999 7.38485C22.2999 6.41885 21.5999 5.67685 20.6199 5.67685ZM25.4683 10.4229V4.36085H27.1763V5.27085C27.4423 4.75285 27.8063 4.50085 27.9323 4.43085C28.1983 4.26285 28.5343 4.16485 28.9403 4.16485C29.2343 4.16485 29.4723 4.23485 29.6683 4.30485L29.4443 5.90085C29.2203 5.74685 28.9963 5.67685 28.6463 5.67685C28.3243 5.67685 27.8483 5.74685 27.5123 6.16685C27.1903 6.57285 27.1763 7.09085 27.1763 7.51085V10.4229H25.4683ZM30.5132 4.36085H32.2212V10.4229H30.5132V4.36085ZM30.3452 1.79885C30.3452 1.23885 30.8072 0.776851 31.3672 0.776851C31.9272 0.776851 32.3892 1.23885 32.3892 1.79885C32.3892 2.35885 31.9272 2.82085 31.3672 2.82085C30.8072 2.82085 30.3452 2.35885 30.3452 1.79885ZM33.8491 10.4229V4.36085H35.5571V5.14485C35.8791 4.69685 36.4531 4.16485 37.4331 4.16485C37.9651 4.16485 38.7491 4.31885 39.2251 4.90685C39.6451 5.42485 39.7011 6.02685 39.7011 6.61485V10.4229H37.9931V7.11885C37.9931 6.78285 37.9791 6.25085 37.6711 5.92885C37.4051 5.64885 37.0411 5.62085 36.8731 5.62085C36.4251 5.62085 36.0751 5.77485 35.8231 6.15285C35.5711 6.54485 35.5571 6.97885 35.5571 7.32885V10.4229H33.8491ZM45.9476 5.14485V4.36085H47.6556V10.1429C47.6556 11.0669 47.5716 12.0329 46.8156 12.7889C46.3956 13.2089 45.6676 13.6429 44.4216 13.6429C43.2456 13.6429 42.5456 13.2929 42.1536 12.9429C41.6776 12.5369 41.3136 11.8229 41.1736 11.1369H43.0216C43.0916 11.4169 43.2456 11.6969 43.4416 11.8649C43.7776 12.1729 44.2396 12.1869 44.4776 12.1869C44.9676 12.1869 45.2896 12.0189 45.5136 11.8089C45.9056 11.4309 45.9476 10.9549 45.9476 10.4649V9.61085C45.3596 10.5069 44.5476 10.6189 44.0856 10.6189C43.2736 10.6189 42.5736 10.3669 41.9856 9.79285C41.5376 9.34485 41.0196 8.56085 41.0196 7.38485C41.0196 6.43285 41.3696 5.55085 41.9576 4.97685C42.4896 4.45885 43.2316 4.16485 44.0436 4.16485C45.1776 4.16485 45.7096 4.78085 45.9476 5.14485ZM44.4636 5.67685C43.9176 5.67685 43.5396 5.90085 43.3296 6.09685C43.0496 6.34885 42.7836 6.75485 42.7836 7.38485C42.7836 7.91685 42.9796 8.30885 43.2316 8.57485C43.5956 8.96685 44.0576 9.10685 44.4636 9.10685C44.8836 9.10685 45.3036 8.95285 45.5976 8.68685C45.9476 8.36485 46.1436 7.87485 46.1436 7.38485C46.1436 6.81085 45.8916 6.41885 45.6536 6.16685C45.3176 5.81685 44.9256 5.67685 44.4636 5.67685Z" fill="#FF6E4B"/>
</svg>
