<svg width="44" height="41" viewBox="0 0 44 41" fill="none" xmlns="http://www.w3.org/2000/svg">
<path d="M41.0788 13.4784C41.0788 13.2574 40.9922 13.0455 40.8381 12.8892C40.7034 12.7525 40.5266 12.668 40.3386 12.649L40.2573 12.6451H32.5892V20.4228C32.5892 21.4297 32.195 22.3954 31.4931 23.1073C30.7912 23.8193 29.8391 24.2191 28.8465 24.2191H14.332V29.6821L14.3359 29.7646C14.3546 29.9553 14.4379 30.1346 14.5726 30.2713C14.7267 30.4276 14.9356 30.5154 15.1535 30.5154H33.4725C34.3469 30.515 35.1938 30.8253 35.8662 31.3922L41.0788 35.7845V13.4784ZM29.6681 4.21915C29.6681 3.99813 29.5814 3.78624 29.4274 3.62995C29.2733 3.47367 29.0644 3.38581 28.8465 3.38581H3.74274C3.52484 3.38581 3.31593 3.47367 3.16186 3.62995C3.00778 3.78623 2.92116 3.99813 2.92116 4.21915V26.5246L8.1334 22.1307L8.13946 22.1257C8.80882 21.5675 9.65161 21.2562 10.5275 21.2562H28.8465C29.0644 21.2562 29.2733 21.1683 29.4274 21.012C29.5814 20.8558 29.6681 20.6439 29.6681 20.4228V4.21915ZM32.5892 9.68211H40.2573L40.4427 9.68681C41.3678 9.73332 42.2458 10.1265 42.9039 10.7939C43.6058 11.5059 44 12.4716 44 13.4784V38.9414C44 39.5158 43.6726 40.0385 43.1599 40.2825C42.6473 40.5265 42.0418 40.448 41.6062 40.081L33.9995 33.6712L33.9992 33.6708C33.8515 33.5464 33.6655 33.4783 33.4735 33.4784H15.1535C14.1609 33.4784 13.2088 33.0785 12.5069 32.3666C11.8489 31.6991 11.4613 30.8085 11.4154 29.8702L11.4108 29.6821V24.2191H10.5275C10.3355 24.2192 10.1469 24.2876 9.99478 24.4145L9.99442 24.4141L2.39413 30.8214C1.95854 31.1886 1.35287 31.2673 0.840119 31.0232C0.327415 30.7792 0 30.2566 0 29.6821V4.21915C0 3.21231 0.394249 2.24663 1.09615 1.53469C1.79805 0.822743 2.7501 0.422852 3.74274 0.422852H28.8465C29.8391 0.422852 30.7912 0.822743 31.4931 1.53469C32.195 2.24663 32.5892 3.21231 32.5892 4.21915V9.68211Z" fill="#FF6E4B"/>
</svg>
