<svg width="43" height="14" viewBox="0 0 43 14" fill="none" xmlns="http://www.w3.org/2000/svg">
<path d="M7.84 7.95885V10.0869C7.28 10.3809 6.538 10.6329 5.53 10.6329C3.892 10.6329 2.898 10.0729 2.114 9.33085C1.036 8.29485 0.616 7.13285 0.616 5.76085C0.616 4.06685 1.316 2.84885 2.114 2.10685C3.052 1.22485 4.214 0.874851 5.544 0.874851C6.202 0.874851 6.986 0.986851 7.84 1.44885V3.57685C6.986 2.59685 5.922 2.52685 5.586 2.52685C3.71 2.52685 2.492 4.06685 2.492 5.78885C2.492 7.86085 4.088 8.98085 5.656 8.98085C6.524 8.98085 7.294 8.60285 7.84 7.95885ZM12.4252 4.16485C13.5732 4.16485 14.3572 4.54285 14.8752 5.01885C15.4772 5.56485 15.8972 6.40485 15.8972 7.39885C15.8972 8.37885 15.4772 9.21885 14.8752 9.76485C14.3572 10.2409 13.5732 10.6189 12.4252 10.6189C11.2772 10.6189 10.4932 10.2409 9.97522 9.76485C9.37322 9.21885 8.95322 8.37885 8.95322 7.39885C8.95322 6.40485 9.37322 5.56485 9.97522 5.01885C10.4932 4.54285 11.2772 4.16485 12.4252 4.16485ZM12.4252 9.10685C13.4192 9.10685 14.1332 8.32285 14.1332 7.39885C14.1332 6.44685 13.4052 5.67685 12.4252 5.67685C11.4452 5.67685 10.7172 6.44685 10.7172 7.39885C10.7172 8.32285 11.4312 9.10685 12.4252 9.10685ZM21.8663 5.14485V0.216851H23.5743V10.4229H21.8663V9.63885C21.2503 10.5209 20.4383 10.6189 20.0042 10.6189C18.1423 10.6189 16.9103 9.16285 16.9103 7.38485C16.9103 5.59285 18.1283 4.16485 19.9203 4.16485C20.3823 4.16485 21.2923 4.24885 21.8663 5.14485ZM20.3543 5.67685C19.3743 5.67685 18.6743 6.41885 18.6743 7.38485C18.6743 8.35085 19.3743 9.10685 20.3543 9.10685C21.3343 9.10685 22.0343 8.35085 22.0343 7.38485C22.0343 6.41885 21.3343 5.67685 20.3543 5.67685ZM25.2026 4.36085H26.9106V10.4229H25.2026V4.36085ZM25.0346 1.79885C25.0346 1.23885 25.4966 0.776851 26.0566 0.776851C26.6166 0.776851 27.0786 1.23885 27.0786 1.79885C27.0786 2.35885 26.6166 2.82085 26.0566 2.82085C25.4966 2.82085 25.0346 2.35885 25.0346 1.79885ZM28.5386 10.4229V4.36085H30.2466V5.14485C30.5686 4.69685 31.1426 4.16485 32.1226 4.16485C32.6546 4.16485 33.4386 4.31885 33.9146 4.90685C34.3346 5.42485 34.3906 6.02685 34.3906 6.61485V10.4229H32.6826V7.11885C32.6826 6.78285 32.6686 6.25085 32.3606 5.92885C32.0946 5.64885 31.7306 5.62085 31.5626 5.62085C31.1146 5.62085 30.7646 5.77485 30.5126 6.15285C30.2606 6.54485 30.2466 6.97885 30.2466 7.32885V10.4229H28.5386ZM40.6371 5.14485V4.36085H42.3451V10.1429C42.3451 11.0669 42.2611 12.0329 41.5051 12.7889C41.0851 13.2089 40.3571 13.6429 39.1111 13.6429C37.9351 13.6429 37.2351 13.2929 36.8431 12.9429C36.3671 12.5369 36.0031 11.8229 35.8631 11.1369H37.7111C37.7811 11.4169 37.9351 11.6969 38.1311 11.8649C38.4671 12.1729 38.9291 12.1869 39.1671 12.1869C39.6571 12.1869 39.9791 12.0189 40.2031 11.8089C40.5951 11.4309 40.6371 10.9549 40.6371 10.4649V9.61085C40.0491 10.5069 39.2371 10.6189 38.7751 10.6189C37.9631 10.6189 37.2631 10.3669 36.6751 9.79285C36.2271 9.34485 35.7091 8.56085 35.7091 7.38485C35.7091 6.43285 36.0591 5.55085 36.6471 4.97685C37.1791 4.45885 37.9211 4.16485 38.7331 4.16485C39.8671 4.16485 40.3991 4.78085 40.6371 5.14485ZM39.1531 5.67685C38.6071 5.67685 38.2291 5.90085 38.0191 6.09685C37.7391 6.34885 37.4731 6.75485 37.4731 7.38485C37.4731 7.91685 37.6691 8.30885 37.9211 8.57485C38.2851 8.96685 38.7471 9.10685 39.1531 9.10685C39.5731 9.10685 39.9931 8.95285 40.2871 8.68685C40.6371 8.36485 40.8331 7.87485 40.8331 7.38485C40.8331 6.81085 40.5811 6.41885 40.3431 6.16685C40.0071 5.81685 39.6151 5.67685 39.1531 5.67685Z" fill="#FF6E4B"/>
</svg>
