<svg width="42" height="11" viewBox="0 0 42 11" fill="none" xmlns="http://www.w3.org/2000/svg">
<path d="M0.564 1.08485H3.28C4.33 1.08485 5.058 1.19685 5.744 1.79885C6.5 2.47085 6.696 3.38085 6.696 4.05285C6.696 4.41685 6.64 5.42485 5.926 6.13885C5.408 6.65685 4.638 6.96485 3.56 6.96485H2.384V10.4229H0.564V1.08485ZM2.384 2.65285V5.39685H3.126C3.476 5.39685 3.924 5.39685 4.316 5.10285C4.652 4.83685 4.82 4.41685 4.82 4.01085C4.82 3.49285 4.568 3.14285 4.302 2.94685C3.924 2.68085 3.448 2.65285 3.014 2.65285H2.384ZM7.79052 4.36085H9.49852V7.79085C9.49852 8.11285 9.52652 8.54685 9.86252 8.85485C10.0725 9.03685 10.4085 9.16285 10.7305 9.16285C11.0525 9.16285 11.3885 9.03685 11.5985 8.85485C11.9345 8.54685 11.9625 8.11285 11.9625 7.79085V4.36085H13.6705V8.07085C13.6705 8.61685 13.6005 9.34485 12.9285 9.93285C12.3685 10.4229 11.4725 10.6189 10.7305 10.6189C9.98852 10.6189 9.09252 10.4229 8.53252 9.93285C7.86052 9.34485 7.79052 8.61685 7.79052 8.07085V4.36085ZM17.0044 0.216851V5.14485C17.6064 4.30485 18.4604 4.16485 18.9784 4.16485C20.7704 4.16485 21.9604 5.55085 21.9604 7.38485C21.9604 9.23285 20.7284 10.6189 18.9364 10.6189C18.5444 10.6189 17.6624 10.5489 17.0044 9.63885V10.4229H15.2964V0.216851H17.0044ZM18.5164 5.67685C17.5364 5.67685 16.8364 6.41885 16.8364 7.38485C16.8364 8.35085 17.5364 9.10685 18.5164 9.10685C19.4964 9.10685 20.1964 8.35085 20.1964 7.38485C20.1964 6.41885 19.4964 5.67685 18.5164 5.67685ZM23.2808 0.216851H24.9888V10.4229H23.2808V0.216851ZM26.6167 4.36085H28.3247V10.4229H26.6167V4.36085ZM26.4487 1.79885C26.4487 1.23885 26.9107 0.776851 27.4707 0.776851C28.0307 0.776851 28.4927 1.23885 28.4927 1.79885C28.4927 2.35885 28.0307 2.82085 27.4707 2.82085C26.9107 2.82085 26.4487 2.35885 26.4487 1.79885ZM34.0966 4.80885L33.2566 5.80285C32.8506 5.42485 32.4446 5.39685 32.2626 5.39685C31.8566 5.39685 31.6046 5.59285 31.6046 5.88685C31.6046 6.04085 31.6746 6.27885 32.1506 6.43285L32.5566 6.55885C33.0326 6.71285 33.7466 6.95085 34.0966 7.42685C34.2786 7.67885 34.4046 8.04285 34.4046 8.43485C34.4046 8.98085 34.2226 9.52685 33.7326 9.97485C33.2426 10.4229 32.6546 10.6189 31.9126 10.6189C30.6526 10.6189 29.9386 10.0169 29.5606 9.61085L30.4566 8.57485C30.7926 8.96685 31.2966 9.27485 31.8006 9.27485C32.2766 9.27485 32.6406 9.03685 32.6406 8.61685C32.6406 8.23885 32.3326 8.08485 32.1086 8.00085L31.7166 7.86085C31.2826 7.70685 30.7786 7.51085 30.4146 7.13285C30.1346 6.83885 29.9526 6.46085 29.9526 5.97085C29.9526 5.38285 30.2326 4.89285 30.5826 4.59885C31.0586 4.22085 31.6746 4.16485 32.1646 4.16485C32.6126 4.16485 33.3266 4.22085 34.0966 4.80885ZM35.6128 10.4229V0.216851H37.3208V5.14485C37.6428 4.69685 38.2168 4.16485 39.1968 4.16485C39.7288 4.16485 40.5128 4.31885 40.9888 4.90685C41.4088 5.42485 41.4648 6.02685 41.4648 6.61485V10.4229H39.7568V7.11885C39.7568 6.78285 39.7428 6.25085 39.4348 5.92885C39.1688 5.64885 38.8048 5.62085 38.6368 5.62085C38.1888 5.62085 37.8388 5.77485 37.5868 6.15285C37.3348 6.54485 37.3208 6.97885 37.3208 7.32885V10.4229H35.6128Z" fill="#FF6E4B"/>
</svg>
