<svg width="34" height="38" viewBox="0 0 34 38" fill="none" xmlns="http://www.w3.org/2000/svg">
<path fill-rule="evenodd" clip-rule="evenodd" d="M0 4.12285C0 3.14155 0.398014 2.20044 1.10649 1.50656C1.81496 0.812672 2.77585 0.422852 3.77778 0.422852H26.4444C27.4464 0.422852 28.4073 0.812672 29.1157 1.50656C29.8242 2.20044 30.2222 3.14155 30.2222 4.12285V15.2229H26.4444V4.12285H3.77778V33.7229H13.2222V37.4229H3.77778C2.77585 37.4229 1.81496 37.033 1.10649 36.3391C0.398014 35.6453 0 34.7042 0 33.7229V4.12285ZM7.55556 11.5229C7.55556 11.0322 7.75456 10.5616 8.1088 10.2147C8.46303 9.86776 8.94348 9.67285 9.44444 9.67285H20.7778C21.2787 9.67285 21.7592 9.86776 22.1134 10.2147C22.4677 10.5616 22.6667 11.0322 22.6667 11.5229C22.6667 12.0135 22.4677 12.4841 22.1134 12.831C21.7592 13.1779 21.2787 13.3729 20.7778 13.3729H9.44444C8.94348 13.3729 8.46303 13.1779 8.1088 12.831C7.75456 12.4841 7.55556 12.0135 7.55556 11.5229ZM7.55556 18.9229C7.55556 18.4322 7.75456 17.9616 8.1088 17.6147C8.46303 17.2678 8.94348 17.0729 9.44444 17.0729H11.3333C11.8343 17.0729 12.3147 17.2678 12.669 17.6147C13.0232 17.9616 13.2222 18.4322 13.2222 18.9229C13.2222 19.4135 13.0232 19.8841 12.669 20.231C12.3147 20.5779 11.8343 20.7729 11.3333 20.7729H9.44444C8.94348 20.7729 8.46303 20.5779 8.1088 20.231C7.75456 19.8841 7.55556 19.4135 7.55556 18.9229ZM24.5556 22.6229C23.0527 22.6229 21.6113 23.2076 20.5486 24.2484C19.4859 25.2892 18.8889 26.7009 18.8889 28.1729C18.8889 29.6448 19.4859 31.0565 20.5486 32.0973C21.6113 33.1381 23.0527 33.7229 24.5556 33.7229C26.0585 33.7229 27.4998 33.1381 28.5625 32.0973C29.6252 31.0565 30.2222 29.6448 30.2222 28.1729C30.2222 26.7009 29.6252 25.2892 28.5625 24.2484C27.4998 23.2076 26.0585 22.6229 24.5556 22.6229ZM15.1111 28.1729C15.1111 25.7196 16.1061 23.3668 17.8773 21.6321C19.6485 19.8974 22.0507 18.9229 24.5556 18.9229C27.0604 18.9229 29.4626 19.8974 31.2338 21.6321C33.005 23.3668 34 25.7196 34 28.1729C34 30.6261 33.005 32.9789 31.2338 34.7136C29.4626 36.4483 27.0604 37.4229 24.5556 37.4229C22.0507 37.4229 19.6485 36.4483 17.8773 34.7136C16.1061 32.9789 15.1111 30.6261 15.1111 28.1729ZM24.5556 23.5479C25.0565 23.5479 25.537 23.7428 25.8912 24.0897C26.2454 24.4366 26.4444 24.9072 26.4444 25.3979V26.3229C26.9454 26.3229 27.4259 26.5178 27.7801 26.8647C28.1343 27.2116 28.3333 27.6822 28.3333 28.1729C28.3333 28.6635 28.1343 29.1341 27.7801 29.481C27.4259 29.8279 26.9454 30.0229 26.4444 30.0229H24.5556C24.0546 30.0229 23.5741 29.8279 23.2199 29.481C22.8657 29.1341 22.6667 28.6635 22.6667 28.1729V25.3979C22.6667 24.9072 22.8657 24.4366 23.2199 24.0897C23.5741 23.7428 24.0546 23.5479 24.5556 23.5479Z" fill="#FF6E4B"/>
</svg>
