<svg width="40" height="41" viewBox="0 0 40 41" fill="none" xmlns="http://www.w3.org/2000/svg">
<path fill-rule="evenodd" clip-rule="evenodd" d="M0 20.4229C0 25.7272 2.10714 30.8143 5.85786 34.565C9.60859 38.3157 14.6957 40.4229 20 40.4229C25.3043 40.4229 30.3914 38.3157 34.1421 34.565C37.8929 30.8143 40 25.7272 40 20.4229C40 15.1185 37.8929 10.0314 34.1421 6.28072C30.3914 2.52999 25.3043 0.422852 20 0.422852C14.6957 0.422852 9.60859 2.52999 5.85786 6.28072C2.10714 10.0314 0 15.1185 0 20.4229ZM36.5714 20.4229C36.5714 24.8179 34.8255 29.0329 31.7178 32.1406C28.61 35.2484 24.395 36.9943 20 36.9943C15.605 36.9943 11.39 35.2484 8.28223 32.1406C5.17449 29.0329 3.42857 24.8179 3.42857 20.4229C3.42857 16.0278 5.17449 11.8128 8.28223 8.70508C11.39 5.59734 15.605 3.85142 20 3.85142C24.395 3.85142 28.61 5.59734 31.7178 8.70508C34.8255 11.8128 36.5714 16.0278 36.5714 20.4229Z" fill="#FF6E4B"/>
<path fill-rule="evenodd" clip-rule="evenodd" d="M11.4286 20.4236C11.4286 30.7596 14.8366 39.2808 20 39.2808C25.1634 39.2808 28.5714 30.7596 28.5714 20.4236C28.5714 10.0876 25.1634 1.56647 20 1.56647C14.8366 1.56647 11.4286 10.0876 11.4286 20.4236ZM25.1429 20.4236C25.1429 29.0225 22.4114 35.8522 20 35.8522C17.5886 35.8522 14.8571 29.0225 14.8571 20.4236C14.8571 11.8248 17.5886 4.99504 20 4.99504C22.4114 4.99504 25.1429 11.8248 25.1429 20.4236Z" fill="#FF6E4B"/>
<path d="M5.37581 10.0618L7.67524 7.52012C7.90381 7.72735 8.15143 7.93078 8.4181 8.1304C11.3232 10.3064 15.961 11.6504 21.0238 11.6504C25.3461 11.6504 29.3735 10.6744 32.2947 9.00354C33.0002 8.59974 33.6242 8.16545 34.1667 7.70069L36.393 10.3087C35.6829 10.9167 34.8844 11.4729 33.9975 11.9773C30.5324 13.9613 25.9198 15.0767 21.0238 15.0767C15.2592 15.0767 9.90381 13.527 6.36095 10.8733C6.02016 10.6182 5.69142 10.3474 5.37581 10.0618ZM5.37581 30.8207L7.67524 33.3624C7.90381 33.1552 8.15143 32.9517 8.4181 32.7521C11.3232 30.5761 15.961 29.2321 21.0238 29.2321C25.3461 29.2321 29.3735 30.2081 32.2947 31.879C33.0002 32.2828 33.6242 32.7171 34.1667 33.1818L36.393 30.5738C35.647 29.9458 34.8452 29.3873 33.9975 28.9053C30.5324 26.9213 25.9198 25.8058 21.0238 25.8058C15.2592 25.8058 9.90381 27.3555 6.36095 30.0093C6.02016 30.2643 5.69142 30.5351 5.37581 30.8207ZM1.14267 22.1373V18.7087H38.857V22.1373H1.14267Z" fill="#FF6E4B"/>
</svg>
