<svg width="40" height="13" viewBox="0 0 40 13" fill="none" xmlns="http://www.w3.org/2000/svg">
<path d="M0.564 0.0848508H2.384V7.85485H5.268V9.42285H0.564V0.0848508ZM10.9209 4.14485V3.36085H12.6289V9.42285H10.9209V8.63885C10.3049 9.52085 9.49294 9.61885 9.05894 9.61885C7.19694 9.61885 5.96494 8.16285 5.96494 6.38485C5.96494 4.59285 7.18294 3.16485 8.97494 3.16485C9.43694 3.16485 10.3469 3.24885 10.9209 4.14485ZM9.40894 4.67685C8.42894 4.67685 7.72894 5.41885 7.72894 6.38485C7.72894 7.35085 8.42894 8.10685 9.40894 8.10685C10.3889 8.10685 11.0889 7.35085 11.0889 6.38485C11.0889 5.41885 10.3889 4.67685 9.40894 4.67685ZM14.1313 12.6289L16.3573 8.51285L13.4733 3.36085H15.4613L17.3373 6.80485L19.0173 3.36085H20.9493L16.0633 12.6289H14.1313ZM24.8178 3.16485C25.9658 3.16485 26.7498 3.54285 27.2678 4.01885C27.8698 4.56485 28.2898 5.40485 28.2898 6.39885C28.2898 7.37885 27.8698 8.21885 27.2678 8.76485C26.7498 9.24085 25.9658 9.61885 24.8178 9.61885C23.6698 9.61885 22.8858 9.24085 22.3678 8.76485C21.7658 8.21885 21.3458 7.37885 21.3458 6.39885C21.3458 5.40485 21.7658 4.56485 22.3678 4.01885C22.8858 3.54285 23.6698 3.16485 24.8178 3.16485ZM24.8178 8.10685C25.8118 8.10685 26.5258 7.32285 26.5258 6.39885C26.5258 5.44685 25.7978 4.67685 24.8178 4.67685C23.8378 4.67685 23.1098 5.44685 23.1098 6.39885C23.1098 7.32285 23.8238 8.10685 24.8178 8.10685ZM29.6108 3.36085H31.3188V6.79085C31.3188 7.11285 31.3468 7.54685 31.6828 7.85485C31.8928 8.03685 32.2288 8.16285 32.5508 8.16285C32.8728 8.16285 33.2088 8.03685 33.4188 7.85485C33.7548 7.54685 33.7828 7.11285 33.7828 6.79085V3.36085H35.4908V7.07085C35.4908 7.61685 35.4208 8.34485 34.7488 8.93285C34.1888 9.42285 33.2928 9.61885 32.5508 9.61885C31.8088 9.61885 30.9128 9.42285 30.3528 8.93285C29.6808 8.34485 29.6108 7.61685 29.6108 7.07085V3.36085ZM40.0007 4.81685H38.8247V9.42285H37.1167V4.81685H36.4447V3.36085H37.1167V1.28885H38.8247V3.36085H40.0007V4.81685Z" fill="#FF6E4B"/>
</svg>
