<svg width="36" height="37" viewBox="0 0 36 37" fill="none" xmlns="http://www.w3.org/2000/svg">
<path d="M35.6789 34.5577L30.3927 29.2786V8.9695L27.8962 4.35577C27.712 4.00402 27.4357 3.7095 27.0971 3.50405C26.7585 3.29859 26.3705 3.19 25.9749 3.19C25.5794 3.19 25.1914 3.29859 24.8528 3.50405C24.5142 3.7095 24.2379 4.00402 24.0537 4.35577L21.7091 8.98041V20.5965L1.85615 0.745503C1.70432 0.59168 1.51035 0.486774 1.29896 0.44416C1.08757 0.401546 0.868341 0.423155 0.669221 0.506231C0.470101 0.589308 0.300113 0.730088 0.180929 0.910623C0.0617445 1.09116 -0.00123544 1.30327 1.83626e-05 1.51991V10.3329H2.35545V12.078H1.83626e-05V19.0586H2.35545V20.8038H1.83626e-05V28.057H2.35545V29.8022H1.83626e-05V35.3321C1.83626e-05 35.6214 0.114378 35.8988 0.317941 36.1034C0.521503 36.3079 0.797592 36.4228 1.08547 36.4228H34.9082C35.1238 36.4241 35.3349 36.3608 35.5146 36.2411C35.6942 36.1213 35.8343 35.9505 35.917 35.7504C35.9997 35.5503 36.0212 35.33 35.9788 35.1176C35.9364 34.9052 35.832 34.7103 35.6789 34.5577ZM8.68365 27.7844V17.9025L18.5287 27.7844H8.68365ZM28.2218 30.0858H23.88V27.4353H28.2218V30.0858ZM28.2218 25.7229H23.88V9.51486L25.9858 5.40286L28.2218 9.52577V25.7229Z" fill="#FF6E4B"/>
</svg>
