<svg width="169" height="36" viewBox="0 0 169 36" fill="none" xmlns="http://www.w3.org/2000/svg">
<path id="What is" d="M85.8314 13.8721C87.4154 13.8721 90.5353 14.1604 92.5033 17.2324V14.5439H98.3597V35.3281H92.5033V32.6396C90.3913 35.6636 87.6075 36 86.1195 36C79.7355 36 75.5111 31.0081 75.5111 24.9121C75.5111 18.7681 79.6874 13.8721 85.8314 13.8721ZM160.707 13.8721C162.243 13.8721 164.691 14.0642 167.331 16.0801L164.452 19.4883C163.06 18.1923 161.667 18.0957 161.043 18.0957C159.652 18.0958 158.787 18.7684 158.787 19.7764C158.788 20.3044 159.028 21.1205 160.66 21.6484L162.052 22.0801C163.684 22.608 166.131 23.4241 167.331 25.0557C167.955 25.9196 168.388 27.1679 168.388 28.5117C168.388 30.3837 167.763 32.256 166.083 33.792C164.403 35.3278 162.388 35.9999 159.844 36C155.524 36 153.076 33.9359 151.78 32.5439L154.852 28.9922C156.004 30.336 157.732 31.3925 159.459 31.3926C161.091 31.3926 162.339 30.5757 162.339 29.1357C162.339 27.8402 161.284 27.3124 160.516 27.0244L159.171 26.5439C157.683 26.016 155.955 25.3437 154.707 24.0479C153.748 23.04 153.123 21.7441 153.123 20.0645C153.123 18.0485 154.084 16.3684 155.284 15.3604C156.915 14.0644 159.027 13.8721 160.707 13.8721ZM32.5726 25.1045L40.2523 3.3125H46.8763L35.0209 35.3281H30.3168L23.308 15.0244L15.9642 35.3281H11.2601L0.12439 3.3125H6.74841L13.9008 25.1045L21.724 3.02441H25.1801L32.5726 25.1045ZM56.7826 17.2324C57.8866 15.6964 59.8552 13.8721 63.2152 13.8721C65.0392 13.8722 67.7269 14.4002 69.3588 16.416C70.7988 18.192 70.9906 20.2565 70.9906 22.2725V35.3281H65.1351V24C65.1351 22.848 65.0866 21.0239 64.0306 19.9199C63.1187 18.9601 61.8703 18.8643 61.2943 18.8643C59.7585 18.8644 58.5586 19.3926 57.6947 20.6885C56.831 22.0323 56.7826 23.5199 56.7826 24.7197V35.3281H50.9271V0.335938H56.7826V17.2324ZM112.199 14.5439H116.231V19.5361H112.199V35.3281H106.342V19.5361H104.038V14.5439H106.342V7.44043H112.199V14.5439ZM147.542 35.3281H141.686V14.5439H147.542V35.3281ZM87.3197 19.0557C83.9597 19.0557 81.559 21.6001 81.559 24.9121C81.559 28.2241 83.9597 30.8164 87.3197 30.8164C90.6795 30.8162 93.0795 28.224 93.0795 24.9121C93.0795 21.6002 90.6795 19.0558 87.3197 19.0557ZM144.615 2.25586C146.534 2.25612 148.118 3.84009 148.119 5.75977C148.119 7.67961 146.534 9.26341 144.615 9.26367C142.695 9.26367 141.11 7.67977 141.11 5.75977C141.11 3.83993 142.695 2.25586 144.615 2.25586Z" fill="black"/>
</svg>
